<svg width="1761" height="422" viewBox="0 0 1761 422" fill="none" xmlns="http://www.w3.org/2000/svg">
<path d="M1741.5 150.8C1738 150.8 1734.8 150 1731.9 148.3C1729 146.6 1726.7 144.4 1725.1 141.6C1723.4 138.8 1722.6 135.7 1722.6 132.2C1722.6 129.6 1723.1 127.2 1724.1 124.9C1725.1 122.7 1726.4 120.7 1728.2 119C1729.9 117.3 1732 116 1734.3 115C1736.6 114 1739.1 113.6 1741.7 113.6C1744.3 113.6 1746.7 114.1 1749 115.1C1751.3 116.1 1753.3 117.4 1755 119.1C1756.7 120.8 1758.1 122.7 1759.1 125C1760.1 127.2 1760.6 129.6 1760.6 132.3C1760.6 134.9 1760.1 137.3 1759.1 139.6C1758.1 141.8 1756.8 143.8 1755.1 145.5C1753.4 147.2 1751.4 148.5 1749.1 149.5C1746.5 150.3 1744.1 150.8 1741.5 150.8ZM1741.5 146.6C1744.2 146.6 1746.6 146 1748.8 144.7C1751 143.4 1752.8 141.7 1754.1 139.5C1755.4 137.3 1756.1 134.9 1756.1 132.2C1756.1 129.5 1755.4 127.1 1754.1 124.9C1752.8 122.7 1751 121 1748.8 119.7C1746.6 118.4 1744.1 117.7 1741.5 117.7C1738.7 117.7 1736.2 118.4 1734 119.7C1731.8 121 1730 122.7 1728.7 124.9C1727.4 127.1 1726.7 129.5 1726.7 132.2C1726.7 134.9 1727.4 137.3 1728.7 139.5C1730 141.7 1731.8 143.4 1734 144.7C1736.2 145.9 1738.7 146.6 1741.5 146.6ZM1734.6 141.8V122H1742.9C1744.8 122 1746.3 122.6 1747.5 123.7C1748.7 124.8 1749.3 126.3 1749.3 128.1C1749.3 129.9 1748.7 131.4 1747.4 132.5C1746.1 133.7 1744.6 134.3 1742.8 134.3H1736.6L1738.3 133.3V141.7H1734.6V141.8ZM1738.5 132L1737 131.2H1741.8C1742.9 131.2 1743.9 130.9 1744.6 130.4C1745.3 129.9 1745.7 129.2 1745.7 128.4C1745.7 127.5 1745.4 126.8 1744.8 126.3C1744.2 125.8 1743.2 125.6 1742 125.6H1736.8L1738.6 124.7V132H1738.5ZM1745.2 141.8L1741.6 133.6L1745.1 132.5L1749.3 141.8H1745.2Z" fill="white"/>
<path d="M453.5 260.1V137.3H481.5L482 162.5L476.6 165.3C478.2 159.7 481.2 154.6 485.7 150C490.2 145.4 495.6 141.7 501.8 138.9C508 136.1 514.4 134.7 520.9 134.7C530.2 134.7 538 136.6 544.3 140.3C550.6 144 555.3 149.6 558.5 157.1C561.7 164.6 563.3 173.9 563.3 185.1V260.1H534.6V187.2C534.6 181 533.7 175.8 532 171.7C530.3 167.6 527.6 164.6 524.1 162.6C520.5 160.7 516.2 159.8 511.1 159.9C506.9 159.9 503.1 160.6 499.6 161.9C496.1 163.2 493.1 165.1 490.5 167.5C487.9 169.9 485.9 172.7 484.4 175.8C482.9 178.9 482.2 182.3 482.2 186.1V260.2H468C465.2 260.2 462.6 260.2 460.2 260.2C457.7 260.1 455.5 260.1 453.5 260.1Z" fill="white"/>
<path d="M645.9 262.4C633.6 262.4 622.7 259.6 613 254.1C603.4 248.6 595.8 241 590.2 231.4C584.6 221.8 581.8 210.8 581.8 198.5C581.8 186.2 584.6 175.3 590.2 165.6C595.8 156 603.4 148.4 613 142.9C622.6 137.4 633.6 134.6 645.9 134.6C658 134.6 668.9 137.4 678.5 142.9C688.1 148.4 695.7 156 701.2 165.6C706.7 175.2 709.5 186.2 709.5 198.5C709.5 210.8 706.7 221.7 701.2 231.4C695.7 241 688.1 248.6 678.5 254.1C668.9 259.7 658 262.4 645.9 262.4ZM645.9 237C652.6 237 658.5 235.3 663.7 231.9C668.9 228.5 673 223.9 676.1 218.2C679.1 212.5 680.6 205.9 680.4 198.6C680.6 191.1 679.1 184.5 676.1 178.8C673.1 173.1 669 168.5 663.7 165.2C658.5 161.9 652.6 160.2 645.9 160.2C639.2 160.2 633.2 161.9 627.8 165.2C622.4 168.5 618.3 173.1 615.3 178.9C612.3 184.7 610.9 191.3 610.9 198.6C610.9 205.9 612.4 212.4 615.3 218.2C618.2 223.9 622.4 228.5 627.8 231.9C633.2 235.3 639.2 237 645.9 237Z" fill="white"/>
<path d="M729.5 260.1V137.3H757.7L758.2 176.4L754.2 167.5C755.9 161.3 758.9 155.7 763.1 150.7C767.3 145.7 772.1 141.8 777.7 138.9C783.2 136 789 134.6 795.1 134.6C797.7 134.6 800.3 134.8 802.7 135.3C805.1 135.8 807.1 136.3 808.6 136.9L800.9 168.4C799.2 167.5 797.1 166.7 794.6 166.1C792.1 165.5 789.6 165.2 787.1 165.2C783.2 165.2 779.5 165.9 776 167.4C772.5 168.9 769.4 170.9 766.8 173.6C764.2 176.2 762.1 179.3 760.6 182.8C759.1 186.3 758.4 190.2 758.4 194.6V260.1H729.5Z" fill="white"/>
<path d="M868.2 262.4C857.3 262.4 847.6 259.6 839 254.1C830.4 248.6 823.5 241 818.5 231.5C813.5 221.9 810.9 211 810.9 198.5C810.9 186.2 813.4 175.3 818.4 165.6C823.4 156 830.2 148.4 838.8 142.9C847.4 137.4 857.2 134.6 868 134.6C873.9 134.6 879.6 135.5 885.1 137.4C890.6 139.3 895.5 141.8 899.9 145C904.2 148.2 907.7 151.7 910.3 155.6C912.9 159.5 914.3 163.5 914.6 167.7L906.9 168.6V87.6H935.6V260H907.9L907.2 231.1L912.8 231.6C912.6 235.5 911.3 239.2 908.7 242.8C906.1 246.4 902.8 249.6 898.8 252.6C894.8 255.6 890.1 257.9 884.7 259.7C879.2 261.5 873.7 262.4 868.2 262.4ZM873.7 238.2C880.4 238.2 886.3 236.5 891.4 233.1C896.5 229.7 900.5 225 903.4 219.1C906.3 213.2 907.7 206.4 907.7 198.6C907.7 191 906.3 184.2 903.4 178.2C900.5 172.2 896.5 167.6 891.4 164.2C886.3 160.9 880.4 159.2 873.7 159.2C867 159.2 861.1 160.9 856 164.2C850.9 167.5 846.9 172.2 844 178.2C841.1 184.2 839.7 191 839.7 198.6C839.7 206.4 841.1 213.2 844 219.1C846.9 225 850.9 229.7 856 233.1C861.2 236.5 867.1 238.2 873.7 238.2Z" fill="white"/>
<path d="M1020.5 262.4C1008.2 262.4 997.3 259.6 987.6 254.1C978 248.6 970.4 241 964.8 231.4C959.2 221.8 956.4 210.8 956.4 198.5C956.4 186.2 959.2 175.3 964.8 165.6C970.4 156 978 148.4 987.6 142.9C997.2 137.4 1008.2 134.6 1020.5 134.6C1032.6 134.6 1043.5 137.4 1053.1 142.9C1062.7 148.4 1070.3 156 1075.8 165.6C1081.3 175.2 1084.1 186.2 1084.1 198.5C1084.1 210.8 1081.3 221.7 1075.8 231.4C1070.3 241 1062.7 248.6 1053.1 254.1C1043.5 259.7 1032.6 262.4 1020.5 262.4ZM1020.5 237C1027.2 237 1033.1 235.3 1038.3 231.9C1043.5 228.5 1047.6 223.9 1050.7 218.2C1053.7 212.5 1055.2 205.9 1055 198.6C1055.2 191.1 1053.7 184.5 1050.7 178.8C1047.7 173.1 1043.6 168.5 1038.3 165.2C1033.1 161.9 1027.2 160.2 1020.5 160.2C1013.8 160.2 1007.8 161.9 1002.4 165.2C997 168.5 992.9 173.1 989.9 178.9C986.9 184.7 985.5 191.3 985.5 198.6C985.5 205.9 987 212.4 989.9 218.2C992.8 223.9 997 228.5 1002.4 231.9C1007.8 235.3 1013.8 237 1020.5 237Z" fill="white"/>
<path d="M1105.6 260.1V137.3H1133.8L1134.3 162L1129.6 163.9C1131 159.9 1133.1 156.1 1135.9 152.6C1138.7 149.1 1142 146.1 1145.9 143.5C1149.8 140.9 1153.9 138.9 1158.2 137.4C1162.5 135.9 1167 135.2 1171.5 135.2C1178.2 135.2 1184.1 136.2 1189.3 138.3C1194.5 140.4 1198.9 143.7 1202.4 148.2C1205.9 152.7 1208.5 158.5 1210.2 165.4L1205.8 164.5L1207.7 160.8C1209.4 157.1 1211.8 153.7 1214.9 150.7C1218 147.7 1221.5 145 1225.4 142.5C1229.3 140.1 1233.4 138.3 1237.6 137C1241.9 135.8 1246.1 135.1 1250.3 135.1C1259.6 135.1 1267.4 137 1273.6 140.7C1279.8 144.4 1284.5 150.1 1287.6 157.7C1290.7 165.3 1292.3 174.7 1292.3 185.9V260H1263.4V187.8C1263.4 181.6 1262.6 176.5 1261 172.4C1259.4 168.4 1256.9 165.4 1253.5 163.4C1250.2 161.5 1246 160.5 1241 160.5C1237.1 160.5 1233.4 161.2 1229.9 162.5C1226.4 163.8 1223.4 165.7 1220.9 168.1C1218.4 170.5 1216.5 173.3 1215.1 176.4C1213.7 179.5 1213 182.9 1213 186.7V260.1H1184.1V187.6C1184.1 181.7 1183.2 176.8 1181.5 172.8C1179.8 168.8 1177.3 165.8 1174 163.7C1170.7 161.6 1166.8 160.6 1162.1 160.6C1158.2 160.6 1154.6 161.3 1151.1 162.6C1147.7 163.9 1144.7 165.7 1142.2 168.1C1139.7 170.4 1137.8 173.2 1136.4 176.3C1135 179.4 1134.3 182.8 1134.3 186.6V260.2H1105.6V260.1Z" fill="white"/>
<path d="M1366.7 262.4C1356.6 262.4 1347.4 259.6 1339.2 254C1331 248.4 1324.4 240.8 1319.4 231.2C1314.4 221.6 1311.9 210.6 1311.9 198.3C1311.9 186 1314.4 175.1 1319.4 165.4C1324.4 155.8 1331.1 148.2 1339.7 142.8C1348.2 137.4 1357.9 134.6 1368.6 134.6C1374.8 134.6 1380.5 135.5 1385.6 137.3C1390.7 139.1 1395.2 141.6 1399.1 144.9C1403 148.2 1406.2 151.9 1408.8 156.1C1411.4 160.3 1413.1 164.8 1414 169.6L1407.7 168V137.2H1436.6V260H1407.5V230.6L1414.3 229.4C1413.2 233.6 1411.2 237.7 1408.4 241.6C1405.5 245.6 1402 249.1 1397.7 252.1C1393.4 255.1 1388.7 257.6 1383.5 259.4C1378.2 261.5 1372.6 262.4 1366.7 262.4ZM1374.7 237C1381.4 237 1387.3 235.4 1392.4 232.1C1397.5 228.8 1401.5 224.3 1404.4 218.5C1407.3 212.7 1408.7 206 1408.7 198.3C1408.7 190.8 1407.3 184.2 1404.4 178.5C1401.5 172.8 1397.5 168.2 1392.4 165C1387.3 161.7 1381.4 160.1 1374.7 160.1C1368 160.1 1362.2 161.7 1357.1 165C1352 168.3 1348.1 172.8 1345.3 178.5C1342.5 184.2 1341.1 190.9 1341.1 198.3C1341.1 205.9 1342.5 212.6 1345.3 218.5C1348.1 224.3 1352 228.9 1357.1 232.1C1362.1 235.4 1368 237 1374.7 237Z" fill="white"/>
<path d="M1576 111.2C1570.3 111.2 1565.8 109.8 1562.6 106.9C1559.4 104 1557.8 99.9 1557.8 94.7C1557.8 89.7 1559.4 85.7 1562.7 82.6C1566 79.5 1570.4 77.9 1576 77.9C1581.9 77.9 1586.4 79.3 1589.6 82.2C1592.8 85.1 1594.4 89.2 1594.4 94.7C1594.4 99.5 1592.8 103.5 1589.5 106.6C1586.2 109.6 1581.7 111.2 1576 111.2ZM1562 260.1V137.3H1590.7V260.1H1562Z" fill="white"/>
<path d="M1672.2 262.4C1660.7 262.4 1650.4 259.6 1641.2 254C1632 248.4 1624.8 240.8 1619.5 231.2C1614.2 221.6 1611.6 210.7 1611.6 198.6C1611.6 186.5 1614.2 175.6 1619.5 166C1624.8 156.4 1632 148.8 1641.2 143.2C1650.4 137.6 1660.7 134.8 1672.2 134.8C1683.2 134.8 1693.2 136.9 1702.3 141.1C1711.3 145.3 1718.3 151.1 1723.3 158.6L1707.5 177.7C1705.2 174.4 1702.2 171.5 1698.6 168.8C1695 166.2 1691.2 164.1 1687.2 162.5C1683.2 160.9 1679.1 160.2 1675.1 160.2C1668.3 160.2 1662.2 161.9 1656.8 165.2C1651.4 168.5 1647.2 173.1 1644.1 178.9C1641 184.7 1639.4 191.3 1639.4 198.6C1639.4 205.9 1641 212.4 1644.2 218.2C1647.4 223.9 1651.7 228.5 1657.1 231.9C1662.5 235.3 1668.6 237 1675.3 237C1679.3 237 1683.3 236.3 1687.1 235C1690.9 233.7 1694.5 231.8 1697.9 229.3C1701.3 226.8 1704.5 223.7 1707.5 220L1723.3 239.3C1718 246.1 1710.8 251.7 1701.5 256C1692.2 260.3 1682.4 262.4 1672.2 262.4Z" fill="white"/>
<path d="M1545.7 254C1542.3 256.8 1538.1 258.9 1533.2 260.3C1528.3 261.7 1523.1 262.4 1517.7 262.4C1504 262.4 1494.4 258.8 1487 251.7C1479.5 244.6 1475.8 234.1 1475.8 220.5V164.4H1454.3V137.7H1475.8V108.9H1504V137.7H1537.3V164.4H1504V219.8C1504 225.9 1505.5 230.5 1508.4 233.7C1511.3 236.9 1515.6 238.5 1521.2 238.5C1527.7 238.5 1533.2 236.8 1537.5 233.4L1545.7 254Z" fill="white"/>
<path d="M475.3 349.2C471.4 349.2 467.8 348.5 464.6 347.1C461.3 345.7 458.5 343.8 456.1 341.3C453.7 338.8 451.9 335.8 450.5 332.4C449.2 329 448.5 325.2 448.5 321.2C448.5 317.2 449.2 313.5 450.5 310.2C451.8 306.9 453.7 303.9 456.1 301.4C458.5 298.9 461.4 297 464.6 295.6C467.8 294.3 471.3 293.6 475.2 293.6C477.7 293.6 480.3 294 482.7 294.8C485.2 295.6 487.5 296.7 489.6 298.1C491.7 299.5 493.4 301.1 494.8 302.9L490.6 307.3C489.3 305.7 487.8 304.4 486.1 303.3C484.4 302.2 482.6 301.3 480.8 300.7C478.9 300.1 477.1 299.8 475.2 299.8C472.3 299.8 469.6 300.3 467.1 301.4C464.6 302.5 462.4 304 460.6 305.9C458.8 307.8 457.4 310.1 456.4 312.7C455.4 315.3 454.9 318.2 454.9 321.3C454.9 324.5 455.4 327.5 456.4 330.2C457.4 332.9 458.9 335.2 460.8 337.2C462.7 339.1 464.9 340.6 467.5 341.7C470.1 342.8 472.9 343.3 476.1 343.3C478 343.3 479.8 343 481.7 342.5C483.6 342 485.3 341.2 486.8 340.2C488.4 339.2 489.7 338.1 490.8 336.9L493.9 342C492.7 343.5 491.1 344.7 489.1 345.8C487.1 346.9 484.9 347.8 482.5 348.4C480 348.9 477.6 349.2 475.3 349.2Z" fill="white"/>
<path d="M503.7 348.4V290.9H509.5V316.7L508.3 317.9C508.9 315.8 509.9 313.9 511.5 312.3C513.1 310.7 514.9 309.4 517 308.5C519.1 307.6 521.2 307.1 523.4 307.1C526.5 307.1 529.1 307.7 531.2 308.9C533.3 310.1 534.8 311.9 535.8 314.4C536.8 316.9 537.3 320 537.3 323.9V348.5H531.4V324.2C531.4 321.5 531.1 319.3 530.4 317.6C529.7 315.9 528.6 314.6 527.2 313.8C525.7 313 523.9 312.6 521.8 312.6C520.1 312.6 518.5 312.9 517 313.5C515.5 314.1 514.2 314.9 513.1 315.9C512 316.9 511.2 318.1 510.5 319.5C509.9 320.8 509.6 322.3 509.6 323.9V348.6H506.7C506.3 348.6 505.9 348.6 505.5 348.6C504.9 348.4 504.4 348.4 503.7 348.4Z" fill="white"/>
<path d="M565.1 349.2C561.6 349.2 558.4 348.3 555.5 346.4C552.6 344.6 550.4 342 548.7 338.9C547 335.7 546.2 332.1 546.2 328.1C546.2 324 547.1 320.4 548.8 317.2C550.5 314 552.8 311.6 555.7 309.7C558.6 307.9 561.8 307 565.4 307C567.5 307 569.5 307.3 571.3 307.9C573.1 308.5 574.7 309.4 576.2 310.5C577.6 311.6 578.8 312.9 579.8 314.4C580.8 315.9 581.4 317.5 581.8 319.2L580.1 318.3L580.3 307.8H586.1V348.4H580.2V338.5L581.8 337.5C581.4 339.1 580.7 340.5 579.7 342C578.7 343.4 577.4 344.7 575.9 345.8C574.4 346.9 572.8 347.7 570.9 348.4C569 348.9 567.1 349.2 565.1 349.2ZM566.4 343.6C569.1 343.6 571.5 342.9 573.6 341.6C575.7 340.3 577.4 338.4 578.6 336.1C579.8 333.7 580.4 331.1 580.4 328.1C580.4 325.1 579.8 322.4 578.6 320.1C577.4 317.8 575.7 315.9 573.6 314.6C571.5 313.3 569.1 312.6 566.4 312.6C563.7 312.6 561.2 313.3 559.1 314.6C557 315.9 555.3 317.8 554.1 320.1C552.9 322.4 552.3 325.1 552.3 328.1C552.3 331.1 552.9 333.7 554.1 336.1C555.3 338.5 556.9 340.3 559.1 341.7C561.2 342.9 563.7 343.6 566.4 343.6Z" fill="white"/>
<path d="M598.2 348.4V307.8H604L604.2 316.3L603.3 316.7C603.8 314.9 604.8 313.3 606.3 311.9C607.8 310.5 609.6 309.3 611.7 308.4C613.8 307.5 616 307 618.2 307C621.2 307 623.7 307.6 625.7 308.8C627.7 310 629.2 311.8 630.3 314.3C631.3 316.8 631.9 319.9 631.9 323.8V348.4H626V324.1C626 321.4 625.7 319.2 625 317.5C624.3 315.8 623.2 314.5 621.8 313.7C620.3 312.9 618.6 312.5 616.4 312.5C614.6 312.5 613 312.8 611.5 313.4C610 314 608.7 314.8 607.6 315.8C606.5 316.8 605.7 318 605 319.4C604.4 320.7 604.1 322.2 604.1 323.8V348.5H601.2C600.8 348.5 600.4 348.5 600 348.5C599.4 348.4 598.9 348.4 598.2 348.4Z" fill="white"/>
<path d="M661.2 366.3C658.2 366.3 655.3 365.8 652.7 364.9C650 364 647.8 362.8 646 361.4L648.3 356.5C649.3 357.3 650.5 358.1 651.9 358.7C653.3 359.3 654.8 359.9 656.4 360.3C658 360.7 659.6 360.9 661.3 360.9C664.3 360.9 666.9 360.3 669 359.2C671.1 358.1 672.7 356.4 673.8 354.3C674.9 352.1 675.5 349.4 675.5 346.2V338.4L676.4 338.2C675.9 340.2 674.9 342 673.4 343.7C671.8 345.4 670 346.7 667.7 347.7C665.5 348.7 663.1 349.2 660.6 349.2C656.8 349.2 653.4 348.3 650.5 346.5C647.5 344.7 645.2 342.2 643.5 339C641.8 335.8 640.9 332.2 640.9 328.2C640.9 324.1 641.8 320.5 643.5 317.3C645.2 314.1 647.6 311.6 650.5 309.8C653.5 308 656.8 307.1 660.4 307.1C662 307.1 663.6 307.3 665.1 307.7C666.6 308.1 668 308.6 669.3 309.4C670.6 310.1 671.7 311 672.8 311.9C673.8 312.8 674.7 313.8 675.4 314.9C676.1 316 676.6 317.1 676.9 318.2L675.3 318L675.5 308H681.3V346.1C681.3 349.4 680.8 352.3 679.9 354.8C679 357.3 677.6 359.4 675.8 361.2C674 362.9 671.9 364.3 669.4 365.2C667 365.8 664.2 366.3 661.2 366.3ZM661.3 343.6C664 343.6 666.5 342.9 668.6 341.6C670.7 340.3 672.4 338.5 673.7 336.1C674.9 333.8 675.6 331.1 675.6 328C675.6 325 675 322.3 673.8 320C672.6 317.7 670.9 315.8 668.7 314.5C666.5 313.2 664.1 312.5 661.3 312.5C658.5 312.5 656 313.2 653.9 314.5C651.7 315.8 650.1 317.7 648.8 320C647.6 322.3 646.9 325 646.9 328C646.9 331 647.5 333.6 648.7 336C649.9 338.4 651.6 340.2 653.8 341.6C656 342.9 658.5 343.6 661.3 343.6Z" fill="white"/>
<path d="M711.3 349.2C707.3 349.2 703.7 348.3 700.5 346.6C697.4 344.8 694.9 342.4 693.2 339.2C691.4 336 690.6 332.4 690.6 328.3C690.6 325.1 691.1 322.3 692.1 319.7C693.1 317.1 694.5 314.9 696.3 313C698.1 311.1 700.2 309.6 702.7 308.5C705.2 307.4 707.9 306.9 710.8 306.9C713.5 306.9 716 307.4 718.3 308.4C720.6 309.4 722.5 310.7 724.1 312.5C725.7 314.2 727 316.3 727.8 318.7C728.6 321.1 729 323.7 728.9 326.5L728.8 329.2H695L694.1 324.3H724.3L722.9 325.6V323.7C722.8 321.8 722.3 320 721.3 318.3C720.3 316.6 718.9 315.2 717.1 314.1C715.3 313 713.2 312.5 710.7 312.5C707.8 312.5 705.3 313.1 703.2 314.2C701.1 315.4 699.4 317.1 698.3 319.4C697.2 321.7 696.6 324.5 696.6 327.9C696.6 331.1 697.2 333.9 698.5 336.3C699.7 338.7 701.5 340.5 703.8 341.8C706.1 343.1 708.9 343.7 712.2 343.7C714.1 343.7 716 343.4 717.9 342.7C719.8 342.1 721.9 340.8 724.2 338.9L727.2 343.1C726 344.3 724.6 345.3 722.9 346.2C721.2 347.1 719.4 347.8 717.5 348.4C715.4 348.9 713.4 349.2 711.3 349.2Z" fill="white"/>
<path d="M781.6 341.9L780.9 342.5C779.4 343.9 777.5 344.5 775.1 344.5C772.9 344.5 771.2 343.9 770 342.7C768.9 341.5 768.3 339.6 768.3 337.2V312H781.2V307.1H768.3V298.2H762.8V307.1H755.3V312H762.8V337.7C762.8 341.4 763.8 344.3 765.9 346.4C768 348.5 770.9 349.6 774.6 349.6C776.3 349.6 777.9 349.3 779.5 348.8C781.1 348.3 782.4 347.5 783.5 346.5L784 346.1L781.6 341.9Z" fill="white"/>
<path d="M810.1 349.2C806.1 349.2 802.5 348.3 799.3 346.5C796.2 344.7 793.7 342.2 791.9 339C790.1 335.8 789.2 332.1 789.2 328C789.2 324 790.1 320.4 791.9 317.2C793.7 314 796.1 311.6 799.3 309.7C802.4 307.9 806 307 810.1 307C814.1 307 817.7 307.9 820.8 309.7C823.9 311.5 826.4 314 828.2 317.2C830 320.4 830.9 324 830.9 328C830.9 332.1 830 335.7 828.2 339C826.4 342.2 824 344.7 820.8 346.5C817.6 348.3 814.1 349.2 810.1 349.2ZM810.1 343.7C812.9 343.7 815.5 343 817.7 341.6C819.9 340.2 821.7 338.4 822.9 336C824.1 333.6 824.8 331 824.8 328C824.8 325 824.2 322.3 822.9 320C821.7 317.7 819.9 315.8 817.7 314.5C815.5 313.2 812.9 312.5 810.1 312.5C807.2 312.5 804.7 313.2 802.4 314.5C800.1 315.8 798.4 317.7 797.1 320C795.8 322.4 795.2 325 795.3 328C795.2 331 795.9 333.7 797.1 336C798.4 338.4 800.1 340.2 802.4 341.6C804.7 343 807.2 343.7 810.1 343.7Z" fill="white"/>
<path d="M856.5 349.2C852.8 349.2 849.5 348.3 846.6 346.5C843.7 344.7 841.4 342.2 839.7 339C838 335.8 837.2 332.2 837.2 328.2C837.2 324.1 838.1 320.5 839.8 317.3C841.5 314.1 843.8 311.6 846.7 309.8C849.6 308 852.9 307.1 856.5 307.1C858.5 307.1 860.5 307.4 862.4 308C864.3 308.6 866 309.5 867.5 310.6C869 311.7 870.2 313 871.2 314.4C872.2 315.8 872.8 317.3 873 318.9L871.2 318.3V291H877V348.5H871.2L871 338.4L872.5 337.9C872.3 339.4 871.7 340.8 870.8 342.1C869.8 343.5 868.6 344.7 867.2 345.8C865.7 346.9 864.1 347.7 862.3 348.4C860.4 348.9 858.5 349.2 856.5 349.2ZM857.4 343.8C860.1 343.8 862.5 343.1 864.6 341.8C866.7 340.5 868.4 338.6 869.6 336.2C870.8 333.8 871.4 331.1 871.4 328C871.4 324.9 870.8 322.2 869.6 319.9C868.4 317.5 866.7 315.7 864.6 314.3C862.5 312.9 860.1 312.2 857.4 312.2C854.6 312.2 852.2 312.9 850.1 314.3C848 315.7 846.3 317.5 845.1 319.9C843.9 322.3 843.3 325 843.3 328C843.3 331 843.9 333.7 845.1 336.1C846.3 338.5 847.9 340.4 850.1 341.7C852.1 343.2 854.6 343.8 857.4 343.8Z" fill="white"/>
<path d="M905 349.2C901.5 349.2 898.3 348.3 895.4 346.4C892.5 344.6 890.3 342 888.6 338.9C886.9 335.7 886.1 332.1 886.1 328.1C886.1 324 887 320.4 888.7 317.2C890.4 314 892.7 311.6 895.6 309.7C898.5 307.9 901.7 307 905.3 307C907.4 307 909.4 307.3 911.2 307.9C913 308.5 914.6 309.4 916.1 310.5C917.5 311.6 918.7 312.9 919.7 314.4C920.7 315.9 921.3 317.5 921.7 319.2L920 318.3L920.2 307.8H926V348.4H920.1V338.5L921.7 337.5C921.3 339.1 920.6 340.5 919.6 342C918.6 343.4 917.3 344.7 915.8 345.8C914.3 346.9 912.7 347.7 910.8 348.4C908.9 348.9 907 349.2 905 349.2ZM906.3 343.6C909 343.6 911.4 342.9 913.5 341.6C915.6 340.3 917.3 338.4 918.5 336.1C919.7 333.7 920.3 331.1 920.3 328.1C920.3 325.1 919.7 322.4 918.5 320.1C917.3 317.8 915.6 315.9 913.5 314.6C911.4 313.3 909 312.6 906.3 312.6C903.6 312.6 901.1 313.3 899 314.6C896.9 315.9 895.2 317.8 894 320.1C892.8 322.4 892.2 325.1 892.2 328.1C892.2 331.1 892.8 333.7 894 336.1C895.2 338.5 896.8 340.3 899 341.7C901.1 342.9 903.5 343.6 906.3 343.6Z" fill="white"/>
<path d="M944 366.3L951.8 347.2L952.3 352.7L931.9 307.9H938.5L952.4 339C952.8 339.8 953.2 340.8 953.6 341.9C954 343 954.4 344.1 954.8 345.2L952.6 345C953 344.1 953.3 343.2 953.6 342.3C953.9 341.4 954.3 340.5 954.6 339.6L966.8 308H973.5L957.1 348.6L950.1 366.5H944V366.3Z" fill="white"/>
<path d="M980.7 349.2C979.3 349.2 978.2 348.8 977.5 348C976.7 347.2 976.4 346 976.4 344.4C976.4 343 976.8 341.8 977.6 340.9C978.4 340 979.5 339.5 980.7 339.5C982.1 339.5 983.2 339.9 983.9 340.8C984.7 341.7 985 342.8 985 344.3C985 345.8 984.6 346.9 983.8 347.8C983 348.8 982 349.2 980.7 349.2Z" fill="white"/>
<path d="M1018.3 348.4V342.6H1027.1V299.7H1018.3V294H1041.9V299.8H1033.1V342.7H1041.9V348.5H1018.3V348.4Z" fill="white"/>
<path d="M1053.7 348.4V307.8H1059.5L1059.7 317L1058.5 317.4C1058.9 315.8 1059.6 314.4 1060.6 313.2C1061.6 311.9 1062.7 310.8 1064.1 309.9C1065.4 309 1066.9 308.3 1068.5 307.8C1070.1 307.3 1071.8 307.1 1073.6 307.1C1075.7 307.1 1077.6 307.5 1079.3 308.1C1081 308.8 1082.4 310 1083.6 311.7C1084.8 313.4 1085.7 315.6 1086.3 318.3L1084.9 317.6L1085.4 316.3C1085.9 315.1 1086.7 314 1087.7 312.8C1088.7 311.7 1089.9 310.7 1091.2 309.8C1092.5 308.9 1094 308.2 1095.6 307.7C1097.2 307.2 1098.8 307 1100.5 307C1103.3 307 1105.8 307.6 1107.7 308.8C1109.7 310 1111.2 311.9 1112.2 314.4C1113.2 316.9 1113.7 320 1113.7 323.9V348.4H1107.7V324.2C1107.7 321.5 1107.4 319.3 1106.7 317.6C1106 315.9 1105 314.6 1103.7 313.8C1102.4 312.9 1100.7 312.5 1098.7 312.5C1096.9 312.5 1095.3 312.8 1093.8 313.4C1092.3 314 1091.1 314.8 1090 315.9C1088.9 317 1088.1 318.2 1087.5 319.5C1086.9 320.8 1086.6 322.3 1086.6 323.9V348.5H1080.7V324.3C1080.7 321.7 1080.4 319.6 1079.7 317.8C1079 316.1 1078 314.8 1076.6 313.9C1075.3 313 1073.6 312.6 1071.6 312.6C1069.9 312.6 1068.3 312.9 1066.9 313.5C1065.4 314.1 1064.2 314.9 1063.1 315.9C1062 316.9 1061.2 318.1 1060.6 319.5C1060 320.8 1059.7 322.3 1059.7 323.9V348.5H1053.7V348.4Z" fill="white"/>
<path d="M1125.4 365.5V307.8H1131.2L1131.4 317.7L1130.3 317.9C1130.8 315.9 1131.8 314.1 1133.3 312.5C1134.9 310.9 1136.7 309.6 1139 308.6C1141.3 307.6 1143.6 307.1 1146.1 307.1C1149.7 307.1 1153 308 1155.9 309.8C1158.8 311.6 1161.1 314.1 1162.8 317.3C1164.5 320.5 1165.4 324.1 1165.4 328.2C1165.4 332.2 1164.6 335.8 1162.9 339C1161.2 342.2 1159 344.7 1156.1 346.5C1153.2 348.3 1149.9 349.3 1146.3 349.3C1143.8 349.3 1141.4 348.8 1139.1 347.7C1136.8 346.7 1134.9 345.3 1133.3 343.6C1131.7 341.9 1130.6 340.1 1130.1 338.1H1131.5V365.5H1125.4ZM1145.2 343.6C1147.9 343.6 1150.4 342.9 1152.5 341.6C1154.6 340.3 1156.3 338.4 1157.6 336.1C1158.8 333.8 1159.5 331.1 1159.5 328.2C1159.5 325.2 1158.9 322.5 1157.6 320.2C1156.3 317.9 1154.7 316 1152.5 314.7C1150.4 313.4 1147.9 312.7 1145.2 312.7C1142.5 312.7 1140 313.4 1137.9 314.7C1135.7 316 1134.1 317.8 1132.8 320.2C1131.6 322.5 1130.9 325.2 1130.9 328.2C1130.9 331.2 1131.5 333.9 1132.8 336.2C1134 338.5 1135.7 340.4 1137.9 341.7C1140 342.9 1142.4 343.6 1145.2 343.6Z" fill="white"/>
<path d="M1190.3 349.2C1186.8 349.2 1183.6 348.3 1180.7 346.4C1177.8 344.6 1175.6 342 1173.9 338.9C1172.2 335.7 1171.4 332.1 1171.4 328.1C1171.4 324 1172.3 320.4 1174 317.2C1175.7 314 1178 311.6 1180.9 309.7C1183.8 307.9 1187 307 1190.6 307C1192.7 307 1194.7 307.3 1196.5 307.9C1198.3 308.5 1199.9 309.4 1201.4 310.5C1202.8 311.6 1204 312.9 1205 314.4C1206 315.9 1206.6 317.5 1207 319.2L1205.3 318.3L1205.5 307.8H1211.3V348.4H1205.4V338.5L1207 337.5C1206.6 339.1 1205.9 340.5 1204.9 342C1203.9 343.4 1202.6 344.7 1201.1 345.8C1199.6 346.9 1198 347.7 1196.1 348.4C1194.3 348.9 1192.4 349.2 1190.3 349.2ZM1191.7 343.6C1194.4 343.6 1196.8 342.9 1198.9 341.6C1201 340.3 1202.7 338.4 1203.9 336.1C1205.1 333.7 1205.7 331.1 1205.7 328.1C1205.7 325.1 1205.1 322.4 1203.9 320.1C1202.7 317.8 1201 315.9 1198.9 314.6C1196.8 313.3 1194.4 312.6 1191.7 312.6C1189 312.6 1186.5 313.3 1184.4 314.6C1182.3 315.9 1180.6 317.8 1179.4 320.1C1178.2 322.4 1177.6 325.1 1177.6 328.1C1177.6 331.1 1178.2 333.7 1179.4 336.1C1180.6 338.5 1182.2 340.3 1184.4 341.7C1186.5 342.9 1188.9 343.6 1191.7 343.6Z" fill="white"/>
<path d="M1240.5 349.2C1236.7 349.2 1233.2 348.3 1230.2 346.4C1227.2 344.6 1224.8 342 1223.1 338.9C1221.4 335.7 1220.5 332.1 1220.5 328.1C1220.5 324.1 1221.4 320.4 1223.1 317.3C1224.8 314.1 1227.2 311.6 1230.2 309.8C1233.2 308 1236.7 307.1 1240.5 307.1C1244 307.1 1247.1 307.8 1250 309.2C1252.8 310.6 1255.1 312.5 1256.8 314.9L1253.4 319.1C1252.4 317.8 1251.2 316.7 1249.9 315.7C1248.5 314.7 1247 314 1245.5 313.4C1243.9 312.9 1242.4 312.6 1240.8 312.6C1238.1 312.6 1235.6 313.3 1233.4 314.7C1231.2 316.1 1229.5 317.9 1228.2 320.3C1226.9 322.6 1226.3 325.3 1226.3 328.3C1226.3 331.3 1226.9 334 1228.2 336.3C1229.5 338.7 1231.2 340.5 1233.4 341.9C1235.6 343.2 1238 343.9 1240.7 343.9C1242.3 343.9 1243.8 343.7 1245.3 343.2C1246.8 342.7 1248.2 342 1249.6 341.1C1250.9 340.2 1252.2 339 1253.3 337.6L1256.7 341.8C1254.9 344.1 1252.6 346 1249.6 347.4C1246.8 348.5 1243.7 349.2 1240.5 349.2Z" fill="white"/>
<path d="M1286.4 341.9L1285.7 342.5C1284.2 343.9 1282.3 344.5 1279.9 344.5C1277.7 344.5 1276 343.9 1274.8 342.7C1273.7 341.5 1273.1 339.6 1273.1 337.2V312H1286V307.1H1273.1V298.2H1267.6V307.1H1260.1V312H1267.6V337.7C1267.6 341.4 1268.6 344.3 1270.7 346.4C1272.8 348.5 1275.7 349.6 1279.4 349.6C1281.1 349.6 1282.7 349.3 1284.3 348.8C1285.9 348.3 1287.2 347.5 1288.3 346.5L1288.8 346.1L1286.4 341.9Z" fill="white"/>
<path d="M1340.6 341.9L1339.9 342.5C1338.4 343.9 1336.5 344.5 1334.1 344.5C1331.9 344.5 1330.2 343.9 1329 342.7C1327.9 341.5 1327.3 339.6 1327.3 337.2V312H1340.2V307.1H1327.3V298.2H1321.8V307.1H1314.3V312H1321.8V337.7C1321.8 341.4 1322.8 344.3 1324.9 346.4C1327 348.5 1329.9 349.6 1333.6 349.6C1335.3 349.6 1336.9 349.3 1338.5 348.8C1340.1 348.3 1341.4 347.5 1342.5 346.5L1343 346.1L1340.6 341.9Z" fill="white"/>
<path d="M1369 349.2C1365 349.2 1361.4 348.3 1358.2 346.5C1355.1 344.7 1352.6 342.2 1350.8 339C1349 335.8 1348.1 332.1 1348.1 328C1348.1 324 1349 320.4 1350.8 317.2C1352.6 314 1355 311.6 1358.2 309.7C1361.3 307.9 1364.9 307 1369 307C1373 307 1376.6 307.9 1379.7 309.7C1382.8 311.5 1385.3 314 1387.1 317.2C1388.9 320.4 1389.8 324 1389.8 328C1389.8 332.1 1388.9 335.7 1387.1 339C1385.3 342.2 1382.9 344.7 1379.7 346.5C1376.6 348.3 1373 349.2 1369 349.2ZM1369 343.7C1371.8 343.7 1374.4 343 1376.6 341.6C1378.8 340.2 1380.6 338.4 1381.8 336C1383 333.6 1383.7 331 1383.7 328C1383.7 325 1383.1 322.3 1381.8 320C1380.6 317.7 1378.8 315.8 1376.6 314.5C1374.4 313.2 1371.8 312.5 1369 312.5C1366.1 312.5 1363.6 313.2 1361.3 314.5C1359 315.8 1357.3 317.7 1356 320C1354.7 322.4 1354.1 325 1354.2 328C1354.1 331 1354.8 333.7 1356 336C1357.3 338.4 1359 340.2 1361.3 341.6C1363.6 343 1366.2 343.7 1369 343.7Z" fill="white"/>
<path d="M1398.9 348.4V307.8H1404.7L1404.9 317L1403.7 317.4C1404.1 315.8 1404.8 314.4 1405.8 313.2C1406.8 311.9 1407.9 310.8 1409.3 309.9C1410.6 309 1412.1 308.3 1413.7 307.8C1415.3 307.3 1417 307.1 1418.8 307.1C1420.9 307.1 1422.8 307.5 1424.5 308.1C1426.2 308.8 1427.6 310 1428.8 311.7C1430 313.4 1430.9 315.6 1431.5 318.3L1430.1 317.6L1430.6 316.3C1431.1 315.1 1431.9 314 1432.9 312.8C1433.9 311.7 1435.1 310.7 1436.4 309.8C1437.7 308.9 1439.2 308.2 1440.8 307.7C1442.4 307.2 1444 307 1445.7 307C1448.5 307 1451 307.6 1452.9 308.8C1454.9 310 1456.4 311.9 1457.4 314.4C1458.4 316.9 1458.9 320 1458.9 323.9V348.4H1452.9V324.2C1452.9 321.5 1452.6 319.3 1451.9 317.6C1451.2 315.9 1450.2 314.6 1448.9 313.8C1447.6 312.9 1445.9 312.5 1443.9 312.5C1442.1 312.5 1440.5 312.8 1439 313.4C1437.5 314 1436.3 314.8 1435.2 315.9C1434.1 317 1433.3 318.2 1432.7 319.5C1432.1 320.8 1431.8 322.3 1431.8 323.9V348.5H1425.9V324.3C1425.9 321.7 1425.6 319.6 1424.9 317.8C1424.2 316.1 1423.2 314.8 1421.8 313.9C1420.5 313 1418.8 312.6 1416.8 312.6C1415.1 312.6 1413.5 312.9 1412.1 313.5C1410.6 314.1 1409.4 314.9 1408.3 315.9C1407.2 316.9 1406.4 318.1 1405.8 319.5C1405.2 320.8 1404.9 322.3 1404.9 323.9V348.5H1398.9V348.4Z" fill="white"/>
<path d="M1488.5 349.2C1484.5 349.2 1480.9 348.3 1477.7 346.5C1474.6 344.7 1472.1 342.2 1470.3 339C1468.5 335.8 1467.6 332.1 1467.6 328C1467.6 324 1468.5 320.4 1470.3 317.2C1472.1 314 1474.5 311.6 1477.7 309.7C1480.8 307.9 1484.4 307 1488.5 307C1492.5 307 1496.1 307.9 1499.2 309.7C1502.3 311.5 1504.8 314 1506.6 317.2C1508.4 320.4 1509.3 324 1509.3 328C1509.3 332.1 1508.4 335.7 1506.6 339C1504.8 342.2 1502.4 344.7 1499.2 346.5C1496.1 348.3 1492.5 349.2 1488.5 349.2ZM1488.5 343.7C1491.3 343.7 1493.9 343 1496.1 341.6C1498.3 340.2 1500.1 338.4 1501.3 336C1502.5 333.6 1503.2 331 1503.2 328C1503.2 325 1502.6 322.3 1501.3 320C1500.1 317.7 1498.3 315.8 1496.1 314.5C1493.9 313.2 1491.3 312.5 1488.5 312.5C1485.6 312.5 1483.1 313.2 1480.8 314.5C1478.5 315.8 1476.8 317.7 1475.5 320C1474.2 322.4 1473.6 325 1473.7 328C1473.6 331 1474.3 333.7 1475.5 336C1476.8 338.4 1478.5 340.2 1480.8 341.6C1483.1 343 1485.7 343.7 1488.5 343.7Z" fill="white"/>
<path d="M1518.5 348.4V307.8H1524.3L1524.5 318.6L1523.9 317.1C1524.5 315.3 1525.4 313.6 1526.7 312C1528 310.4 1529.5 309.2 1531.2 308.3C1533 307.4 1534.9 306.9 1537 306.9C1537.9 306.9 1538.7 307 1539.5 307.1C1540.3 307.2 1540.9 307.4 1541.4 307.6L1539.8 314.1C1539.1 313.8 1538.4 313.6 1537.7 313.4C1537 313.3 1536.3 313.2 1535.7 313.2C1533.9 313.2 1532.4 313.5 1531 314.1C1529.6 314.7 1528.4 315.6 1527.4 316.7C1526.4 317.8 1525.7 319.1 1525.1 320.5C1524.6 322 1524.3 323.5 1524.3 325.2V348.2H1518.5V348.4Z" fill="white"/>
<path d="M1548.3 348.4V307.8H1554.1L1554.3 318.6L1553.7 317.1C1554.3 315.3 1555.2 313.6 1556.5 312C1557.8 310.4 1559.3 309.2 1561 308.3C1562.8 307.4 1564.7 306.9 1566.8 306.9C1567.7 306.9 1568.5 307 1569.3 307.1C1570.1 307.2 1570.7 307.4 1571.2 307.6L1569.6 314.1C1568.9 313.8 1568.2 313.6 1567.5 313.4C1566.8 313.3 1566.1 313.2 1565.5 313.2C1563.7 313.2 1562.2 313.5 1560.8 314.1C1559.4 314.7 1558.2 315.6 1557.2 316.7C1556.2 317.8 1555.5 319.1 1554.9 320.5C1554.4 322 1554.1 323.5 1554.1 325.2V348.2H1548.3V348.4Z" fill="white"/>
<path d="M1594.3 349.2C1590.3 349.2 1586.7 348.3 1583.5 346.5C1580.4 344.7 1577.9 342.2 1576.1 339C1574.3 335.8 1573.4 332.1 1573.4 328C1573.4 324 1574.3 320.4 1576.1 317.2C1577.9 314 1580.3 311.6 1583.5 309.7C1586.6 307.9 1590.2 307 1594.3 307C1598.3 307 1601.9 307.9 1605 309.7C1608.1 311.5 1610.6 314 1612.4 317.2C1614.2 320.4 1615.1 324 1615.1 328C1615.1 332.1 1614.2 335.7 1612.4 339C1610.6 342.2 1608.2 344.7 1605 346.5C1601.9 348.3 1598.3 349.2 1594.3 349.2ZM1594.3 343.7C1597.1 343.7 1599.7 343 1601.9 341.6C1604.1 340.2 1605.9 338.4 1607.1 336C1608.3 333.6 1609 331 1609 328C1609 325 1608.4 322.3 1607.1 320C1605.9 317.7 1604.1 315.8 1601.9 314.5C1599.7 313.2 1597.1 312.5 1594.3 312.5C1591.4 312.5 1588.9 313.2 1586.6 314.5C1584.3 315.8 1582.6 317.7 1581.3 320C1580 322.4 1579.4 325 1579.5 328C1579.4 331 1580.1 333.7 1581.3 336C1582.6 338.4 1584.3 340.2 1586.6 341.6C1588.9 343 1591.5 343.7 1594.3 343.7Z" fill="white"/>
<path d="M1632.3 348.4L1618.2 307.8L1624.4 307.7L1635.4 340.7L1633.5 340.5L1645.4 313.9H1648.9L1660.9 340.5L1658.6 340.7L1669.8 307.7H1675.9L1661.8 348.3H1658.4L1645.8 319.4L1648.1 319.6L1635.9 348.4H1632.3Z" fill="white"/>
<path d="M1683.5 349.2C1682.1 349.2 1681 348.8 1680.3 348C1679.5 347.2 1679.2 346 1679.2 344.4C1679.2 343 1679.6 341.8 1680.4 340.9C1681.2 340 1682.3 339.5 1683.5 339.5C1684.9 339.5 1686 339.9 1686.7 340.8C1687.5 341.7 1687.8 342.8 1687.8 344.3C1687.8 345.8 1687.4 346.9 1686.6 347.8C1685.9 348.8 1684.8 349.2 1683.5 349.2Z" fill="white"/>
<mask id="mask0_1_2" style="mask-type:luminance" maskUnits="userSpaceOnUse" x="0" y="23" width="377" height="377">
<path d="M188.4 399.3C292.285 399.3 376.5 315.085 376.5 211.2C376.5 107.315 292.285 23.1 188.4 23.1C84.5152 23.1 0.299988 107.315 0.299988 211.2C0.299988 315.085 84.5152 399.3 188.4 399.3Z" fill="white"/>
</mask>
<g mask="url(#mask0_1_2)">
<path d="M-62.5001 247.1L-51.5001 202.4L-29.5001 112.6L-7.50006 22.8L14.4999 -67L16.8999 -76.9C18.0999 -76.1 19.2999 -75.3 20.4999 -74.5L18.3999 -66.1L-3.60006 23.7L-25.6001 113.5L-47.6001 203.3L-58.0001 245.6C-59.4001 246.2 -61.0001 246.7 -62.5001 247.1Z" fill="#FBB800"/>
<path d="M142.3 72.1L145.2 60.3L157.8 8.89999C158.8 16.5 158 24.3 156.4 31.8V31.9L154.6 39C151.5 50.3 147.3 61.3 142.3 72.1Z" fill="#FBB800"/>
<path d="M125.3 102.4L136.2 58.1L152.3 -7.7C153.3 -6 154.2 -4.1 155 -2C155 -1.9 155.1 -1.9 155.1 -1.8L140.2 59.1L132.4 91.1C130.1 94.9 127.8 98.7 125.3 102.4Z" fill="#FBB800"/>
<path d="M110.8 122.8L127.2 55.9L145 -16.7C146.2 -15.7 147.3 -14.5 148.4 -13.3L131.2 56.8L117.1 114.4C115 117.3 112.9 120.1 110.8 122.8Z" fill="#FBB800"/>
<path d="M97.2999 139.1L118.3 53.7L136.9 -22.2C138.2 -21.5 139.4 -20.8 140.6 -20.1L122.2 54.7L103.1 132.3C101.2 134.6 99.2999 136.9 97.2999 139.1Z" fill="#FBB800"/>
<path d="M84.2999 153L87.1999 141.3L109.2 51.5L128.2 -25.8C129.5 -25.3 130.8 -24.9 132.1 -24.4L113.2 52.5L91.1999 142.3L89.9999 147.1C88.0999 149.1 86.2999 151 84.2999 153Z" fill="#FBB800"/>
<path d="M71.7999 165.2L78.1999 139.1L100.2 49.3L119.3 -28.6C120.6 -28.2 121.9 -27.8 123.2 -27.4L104.1 50.3L82.0999 140.1L77.1999 160C75.4999 161.7 73.6999 163.5 71.7999 165.2Z" fill="#FBB800"/>
<path d="M59.6 176.1L69.2 136.9L91.2 47.1L110.4 -31.2C111.7 -30.8 113 -30.4 114.3 -30L95.1 48.1L73.1 137.9L65 171.4C63.2 173 61.4 174.6 59.6 176.1Z" fill="#FBB800"/>
<path d="M47.7 186L60.3 134.7L82.3 44.9L101.7 -34.2C103 -33.7 104.3 -33.3 105.6 -32.9L86.3 45.8L64.3 135.6L53 181.7C51.2 183.2 49.5 184.6 47.7 186Z" fill="#FBB800"/>
<path d="M35.9999 195L51.2999 132.5L73.2999 42.7L92.8999 -37.3C94.1999 -36.8 95.4999 -36.3 96.7999 -35.9L77.2999 43.7L55.2999 133.5L41.1999 191.2C39.3999 192.4 37.6999 193.7 35.9999 195Z" fill="#FBB800"/>
<path d="M24.4 203.3L42.3 130.3L64.3 40.5L84.2 -40.7C85.5 -40.2 86.8 -39.7 88 -39.2L68.2 41.5L46.2 131.3L29.4 199.7C27.8 200.9 26.1 202.1 24.4 203.3Z" fill="#FBB800"/>
<path d="M12.9999 210.9L33.2999 128.1L55.2999 38.3L75.5999 -44.4C76.8999 -43.8 78.0999 -43.3 79.3999 -42.8L59.2999 39.2L37.2999 129L17.9999 207.6C16.3999 208.7 14.6999 209.8 12.9999 210.9Z" fill="#FBB800"/>
<path d="M1.79993 217.9L2.29993 215.7L24.2999 125.9L46.2999 36.1L66.9999 -48.2C68.2999 -47.6 69.4999 -47 70.7999 -46.4L50.3999 37.1L28.3999 126.9L6.79993 214.9C5.09993 215.9 3.39993 216.9 1.79993 217.9Z" fill="#FBB800"/>
<path d="M-9.30005 224.3L-6.60005 213.4L15.4 123.6L37.4 33.8L58.5999 -52.5C59.7999 -51.9 61.0999 -51.3 62.3999 -50.6L41.4 34.8L19.4 124.6L-2.60005 214.4L-4.30005 221.5C-6.00005 222.5 -7.70005 223.4 -9.30005 224.3Z" fill="#FBB800"/>
<path d="M-20.2001 230.1L-15.6001 211.2L6.39993 121.4L28.3999 31.6L50.0999 -56.8C51.2999 -56.1 52.5999 -55.5 53.7999 -54.8L32.3999 32.6L10.3999 122.4L-11.6001 212.2L-15.4001 227.6C-16.9001 228.4 -18.5001 229.3 -20.2001 230.1Z" fill="#FBB800"/>
<path d="M-31.0001 235.3L-24.6001 209L-2.60006 119.2L19.3999 29.4L41.3999 -60.4L41.6999 -61.5C42.8999 -60.8 44.1999 -60.1 45.3999 -59.4L23.3999 30.3L1.39994 120.1L-20.6001 209.9L-26.3001 233C-27.8001 233.8 -29.4001 234.5 -31.0001 235.3Z" fill="#FBB800"/>
<path d="M-41.7001 239.8L-33.6001 206.8L-11.6001 117L10.3999 27.2L32.3999 -62.6L33.2999 -66.3C34.4999 -65.6 35.6999 -64.8 36.9999 -64.1L36.3999 -61.6L14.3999 28.2L-7.60007 118L-29.6001 207.8L-37.0001 237.8C-38.5001 238.5 -40.1001 239.1 -41.7001 239.8Z" fill="#FBB800"/>
<path d="M-52.2001 243.8L-42.6001 204.7L-20.6001 114.9L1.39993 25.1L23.3999 -64.7L24.9999 -71.4C26.1999 -70.6 27.3999 -69.8 28.6999 -69.1L27.3999 -63.8L5.49993 26L-16.5001 115.8L-38.5001 205.6L-47.5001 242.1C-49.1001 242.6 -50.6001 243.2 -52.2001 243.8Z" fill="#FBB800"/>
<path d="M-72.7001 249.9L-60.5001 200.2L-38.5001 110.4L-16.5001 20.6L5.49992 -69.2L8.79993 -82.6C9.99993 -81.7 11.1999 -80.9 12.3999 -80L9.49992 -68.2L-12.5001 21.6L-34.6001 111.4L-56.6001 201.2L-68.3001 248.8C-69.7001 249.2 -71.2001 249.6 -72.7001 249.9Z" fill="#FBB800"/>
<path d="M-82.7001 252L-69.4001 198L-25.4001 18.4L-3.40007 -71.4L0.799927 -88.5C1.99993 -87.6 3.19993 -86.7 4.39993 -85.8L0.59993 -70.4L-21.4001 19.4L-43.4001 109.2L-65.4001 199L-78.2001 251.2C-79.8001 251.5 -81.3001 251.8 -82.7001 252Z" fill="#FBB800"/>
</g>
<mask id="mask1_1_2" style="mask-type:luminance" maskUnits="userSpaceOnUse" x="0" y="23" width="377" height="377">
<path d="M188.4 399.3C292.285 399.3 376.5 315.085 376.5 211.2C376.5 107.315 292.285 23.1 188.4 23.1C84.5152 23.1 0.299988 107.315 0.299988 211.2C0.299988 315.085 84.5152 399.3 188.4 399.3Z" fill="white"/>
</mask>
<g mask="url(#mask1_1_2)">
<path d="M221.3 186.3L255.6 160.4L324.4 108.5L393.2 56.6L462 4.70002L469.6 -0.999985C469.8 0.400015 470 1.80002 470.2 3.20002L463.8 8.00002L395 59.9L326.2 111.8L257.4 163.7L225 188.2C223.7 187.6 222.5 186.9 221.3 186.3Z" fill="#FBB800"/>
<path d="M365.9 213.2L374.9 206.4L443.7 154.5L503 109.8C503.5 111 503.9 112.2 504.4 113.4L445.5 157.8L376.7 209.7L373 212.5C370.6 212.8 368.3 213 365.9 213.2Z" fill="#FBB800"/>
<path d="M351 213.9L371 198.8L439.8 146.9L499.5 101.9C500 103.1 500.6 104.2 501.1 105.3L441.5 150.2L372.7 202.1L357.4 213.6C355.4 213.8 353.2 213.9 351 213.9Z" fill="#FBB800"/>
<path d="M337.1 214L367.2 191.3L436 139.4L496 94.1C496.5 95.3 497 96.4 497.6 97.5L437.7 142.7L368.9 194.6L343.2 214C341.1 214.1 339.1 214 337.1 214Z" fill="#FBB800"/>
<path d="M324 213.5L363.3 183.8L432.1 131.9L492.7 86.2C493.2 87.4 493.7 88.6 494.2 89.7L433.9 135.2L365 187.1L329.7 213.7C327.8 213.7 325.9 213.6 324 213.5Z" fill="#FBB800"/>
<path d="M311.5 212.4L359.4 176.2L428.2 124.3L489.5 78C489.9 79.2 490.4 80.4 490.9 81.6L429.9 127.6L361.1 179.5L316.9 212.8C315.1 212.8 313.3 212.6 311.5 212.4Z" fill="#FBB800"/>
<path d="M299.5 210.9L355.5 168.7L424.3 116.8L486.6 69.8C487 71 487.4 72.2 487.9 73.5L426 120.2L357.2 172.1L304.7 211.7C303 211.4 301.3 211.2 299.5 210.9Z" fill="#FBB800"/>
<path d="M288.1 209.1L351.6 161.2L420.4 109.3L483.8 61.5C484.2 62.7 484.6 64 485 65.2L422.1 112.6L353.3 164.5L293.1 210C291.5 209.7 289.8 209.4 288.1 209.1Z" fill="#FBB800"/>
<path d="M277.2 206.9L278.9 205.6L347.7 153.7L416.5 101.8L481.2 53C481.6 54.3 481.9 55.5 482.3 56.8L418.3 105.1L349.5 157L282 207.9C280.4 207.6 278.8 207.2 277.2 206.9Z" fill="#FBB800"/>
<path d="M266.7 204.3L275 198L343.8 146.1L412.6 94.2L478.7 44.3C479 45.6 479.4 46.9 479.7 48.1L414.3 97.5L345.5 149.4L276.7 201.3L271.2 205.4C269.8 205.1 268.2 204.7 266.7 204.3Z" fill="#FBB800"/>
<path d="M256.7 201.4L271.2 190.5L340 138.6L408.8 86.7L476.6 35.6C476.9 36.9 477.2 38.2 477.6 39.5L410.6 90L341.7 142L272.9 193.9L261.1 202.8C259.7 202.4 258.2 201.9 256.7 201.4Z" fill="#FBB800"/>
<path d="M247.2 198.2L267.3 183L336.1 131.1L404.9 79.2L473.7 27.3L474.5 26.7C474.8 28 475.1 29.4 475.4 30.7L406.6 82.6L337.8 134.5L269 186.3L251.3 199.6C250 199.2 248.6 198.7 247.2 198.2Z" fill="#FBB800"/>
<path d="M238.1 194.5L263.4 175.4L332.2 123.5L401 71.7L469.8 19.8L472.7 17.6C472.9 19 473.2 20.3 473.5 21.6L471.6 23.1L402.7 75L333.9 126.9L265.1 178.8L242.1 196.2C240.8 195.7 239.4 195.1 238.1 194.5Z" fill="#FBB800"/>
<path d="M229.5 190.6L259.5 168L328.3 116.1L397.1 64.2L465.9 12.3L471 8.40001C471.2 9.80001 471.5 11.1 471.7 12.5L467.6 15.6L398.8 67.5L330 119.4L261.2 171.3L233.2 192.4C232 191.8 230.7 191.2 229.5 190.6Z" fill="#FBB800"/>
<path d="M213.6 181.6L251.7 152.9L320.5 101L389.3 49.1L458.1 -2.79998L468.3 -10.5C468.5 -9.09998 468.6 -7.69998 468.8 -6.19998L459.8 0.600016L391 52.5L322.2 104.4L253.4 156.3L217 183.7C215.8 183 214.7 182.3 213.6 181.6Z" fill="#FBB800"/>
<path d="M206.4 176.6L247.8 145.4L385.5 41.5L454.3 -10.4L467.4 -20.3C467.5 -18.9 467.7 -17.4 467.8 -16L456 -6.99999L387.2 44.9L318.4 96.8L249.6 148.7L209.6 178.9C208.5 178.1 207.5 177.4 206.4 176.6Z" fill="#FBB800"/>
<path d="M199.9 171.1L244 137.8L312.8 85.9L381.6 34L450.4 -17.9L466.6 -30.1C466.7 -28.6 466.8 -27.2 466.9 -25.7L452.1 -14.5L383.3 37.4L314.5 89.3L245.7 141.2L202.7 173.6C201.7 172.8 200.8 171.9 199.9 171.1Z" fill="#FBB800"/>
<path d="M194 165.1L240.1 130.3L308.9 78.4L377.7 26.5L446.5 -25.4L466.1 -40.2C466.2 -38.7 466.2 -37.2 466.3 -35.7L448.2 -22.1L379.4 29.8L310.6 81.7L241.8 133.6L196.5 167.8C195.6 166.9 194.8 166 194 165.1Z" fill="#FBB800"/>
<path d="M188.9 158.4L236.1 122.8L305 70.9L373.8 19L442.6 -33L465.8 -50.5C465.8 -49 465.8 -47.5 465.9 -45.9L444.3 -29.6L375.5 22.3L306.7 74.2L237.9 126.1L191 161.4C190.3 160.4 189.6 159.4 188.9 158.4Z" fill="#FBB800"/>
<path d="M185 150.9L232.3 115.2L301.1 63.3L369.9 11.4L438.7 -40.5L465.8 -60.9C465.8 -59.3 465.8 -57.8 465.8 -56.2L440.5 -37.1L371.7 14.8L302.9 66.7L234 118.6L186.6 154.4C186 153.2 185.4 152.1 185 150.9Z" fill="#FBB800"/>
<path d="M182.4 142.4L228.4 107.7L297.2 55.8L366 3.9L434.9 -48L466.1 -71.5C466.1 -69.9 466 -68.4 466 -66.9C466 -66.9 466 -66.9 466 -66.8L436.6 -44.7L367.8 7.2L299 59.1L230.1 111L183.3 146.3C182.9 145.1 182.6 143.8 182.4 142.4Z" fill="#FBB800"/>
<path d="M181.7 137.1C181.6 135.6 181.6 134 181.7 132.4L224.5 100.1L293.3 48.2L362.1 -3.69997L431 -55.5L466.2 -82.1C466.2 -80.5 466.2 -79 466.2 -77.4L432.7 -52.2L363.9 -0.29998L295.1 51.6L226.3 103.5L181.7 137.1Z" fill="#FBB800"/>
<path d="M182.7 125.9C183.2 123.7 183.9 121.7 184.7 119.7L220.6 92.6L289.4 40.7L358.2 -11.2L427 -63.1L466 -92.4C466.1 -90.9 466.1 -89.4 466.2 -87.9L428.9 -59.7L360 -7.8L291.2 44.1L222.4 96L182.7 125.9Z" fill="#FBB800"/>
<path d="M287.3 36.5L256.1 60C265 52.5 273.6 44.4 281.8 35.9L285.5 33.1L354.3 -18.8L423.1 -70.7L465.1 -102.4C465.3 -101 465.4 -99.6 465.5 -98.1L424.8 -67.4L356 -15.5L287.3 36.5Z" fill="#FBB800"/>
</g>
<mask id="mask2_1_2" style="mask-type:luminance" maskUnits="userSpaceOnUse" x="0" y="23" width="377" height="377">
<path d="M188.4 399.3C292.285 399.3 376.5 315.085 376.5 211.2C376.5 107.315 292.285 23.1 188.4 23.1C84.5152 23.1 0.299988 107.315 0.299988 211.2C0.299988 315.085 84.5152 399.3 188.4 399.3Z" fill="white"/>
</mask>
<g mask="url(#mask2_1_2)">
<path d="M295.4 -45.3C310.2 -32.1 320.8 -13 329.6 3.9C339.5 22.9 352.2 39.5 365.9 55.9C370 60.8 412.6 139 383.2 171.6C364 192.9 318 190 290.5 174.6C280 168.7 279.8 165.2 237.9 134.1C219.6 120.5 215.3 117.9 208.5 116.1C183.3 109.5 172.4 127 151.3 122.5C128.6 117.6 107.8 90 109 64C110.2 38.6 132 22.2 146.7 11.2C175.4 -10.4 184.7 1.3 208.3 -19.1C229.9 -37.8 238.8 -62.8 257.8 -61.7C272.9 -60.9 285.1 -54.5 295.4 -45.3Z" fill="url(#paint0_linear_1_2)"/>
</g>
<mask id="mask3_1_2" style="mask-type:luminance" maskUnits="userSpaceOnUse" x="0" y="23" width="377" height="377">
<path d="M188.4 399.3C292.285 399.3 376.5 315.085 376.5 211.2C376.5 107.315 292.285 23.1 188.4 23.1C84.5152 23.1 0.299988 107.315 0.299988 211.2C0.299988 315.085 84.5152 399.3 188.4 399.3Z" fill="white"/>
</mask>
<g mask="url(#mask3_1_2)">
<path d="M209.8 467.9C215.7 465.7 221.3 462.9 226.6 459.5C240.3 450.6 297.6 418.5 316.8 352.5C317.8 349.2 319.9 341.5 321.4 331.4C323.8 314.6 330.8 264.2 302.5 242.6C291 233.8 276.7 232.2 264.7 232.9C253.5 233.6 242.8 237.3 233.3 243.1C223.1 249.3 209.3 255.4 192.9 256.3C151.7 258.6 133.3 222.4 93.2 224.8C56.9 227 20.8 266 16.4 302.2C13.4 327.4 25.5 353.5 40.5 386.1C44.9 395.6 47.1 400.4 50.6 406C80.3 453.4 154.9 488.3 209.8 467.9Z" fill="url(#paint1_linear_1_2)"/>
</g>
<mask id="mask4_1_2" style="mask-type:luminance" maskUnits="userSpaceOnUse" x="0" y="23" width="377" height="377">
<path d="M188.4 399.3C292.285 399.3 376.5 315.085 376.5 211.2C376.5 107.315 292.285 23.1 188.4 23.1C84.5152 23.1 0.299988 107.315 0.299988 211.2C0.299988 315.085 84.5152 399.3 188.4 399.3Z" fill="white"/>
</mask>
<g mask="url(#mask4_1_2)">
<path d="M193.7 274.8L177.5 317.9L145 404.4L112.4 491L79.9 577.5L76.3 587C75.2 586 74.1 585.1 73 584.2L76.1 576.1L108.7 489.6L141.2 403.1L173.8 316.6L189.1 275.8C190.6 275.4 192.2 275.1 193.7 274.8Z" fill="#FBB800"/>
<path d="M6.90002 377.6L-17.4 442.1L-43.7 512.1C-44.8 510.9 -45.7 509.7 -46.6 508.3L-21.2 440.7L-0.299973 385.2C2.00003 382.6 4.40002 380.1 6.90002 377.6Z" fill="#FBB800"/>
<path d="M22.3 363.1L-8.69998 445.4L-36.2 518.6C-37.4 517.8 -38.5 517 -39.6 516L-12.5 443.9L15.6 369.1C17.8 367.1 20 365.1 22.3 363.1Z" fill="#FBB800"/>
<path d="M36.7 350.8L32.4 362.1L-0.199965 448.6L-28.2 523.1C-29.5 522.5 -30.7 521.9 -31.9 521.2L-3.99996 447.1L28.6 360.6L30.3 355.9C32.5 354.3 34.6 352.5 36.7 350.8Z" fill="#FBB800"/>
<path d="M50.6 340.2L41.1 365.3L8.6 451.8L-19.7 527C-21 526.5 -22.2 525.9 -23.5 525.4L4.7 450.5L37.3 364L44.5 344.8C46.5 343.2 48.6 341.7 50.6 340.2Z" fill="#FBB800"/>
<path d="M64 330.8L49.8 368.6L17.2 455.1L-11.2 530.6C-12.5 530 -13.7 529.5 -15 529L13.3 453.7L46 367.2L58.2 334.9C60.1 333.5 62 332.2 64 330.8Z" fill="#FBB800"/>
<path d="M77 322.4L58.4 371.9L25.8 458.4L-2.89997 534.6C-4.09997 534 -5.39998 533.4 -6.59998 532.8L22.1 457L54.6 370.5L71.3 326.1C73.2 324.8 75.1 323.6 77 322.4Z" fill="#FBB800"/>
<path d="M89.8 314.9L67.1 375.2L34.5 461.7L5.49999 538.8C4.29999 538.2 3.09999 537.5 1.79999 536.9L30.6 460.2L63.1 373.7L84 318.1C86 317 87.9 315.9 89.8 314.9Z" fill="#FBB800"/>
<path d="M102.2 308L75.7 378.4L43.1 464.9L13.6 543.2C12.4 542.5 11.2 541.9 10 541.2L39.2 463.5L71.7 377L96.5 311C98.6 310 100.4 309 102.2 308Z" fill="#FBB800"/>
<path d="M114.4 301.8L84.4 381.6L51.8 468.1L21.8 547.8C20.6 547.1 19.4 546.4 18.2 545.7L47.9 466.7L80.4 380.2L108.9 304.5C110.8 303.6 112.6 302.7 114.4 301.8Z" fill="#FBB800"/>
<path d="M126.4 296.2L125.6 298.4L93 384.9L60.4 471.4L29.8 552.7C28.6 552 27.4 551.2 26.2 550.5L56.7 470L89.2 383.5L121.1 298.7C122.9 297.8 124.7 297 126.4 296.2Z" fill="#FBB800"/>
<path d="M138.2 291.2L134.3 301.7L101.7 388.2L69.1 474.7L37.8 557.8C36.6 557 35.5 556.3 34.3 555.5L65.3 473.2L97.9 386.7L130.4 300.2L133 293.3C134.7 292.6 136.5 291.9 138.2 291.2Z" fill="#FBB800"/>
<path d="M149.7 286.7L142.9 304.9L110.3 391.4L77.8 477.9L45.7 563.1C44.5 562.3 43.4 561.5 42.2 560.7L73.9 476.4L106.5 389.9L139 303.4L144.6 288.5C146.3 288 148 287.3 149.7 286.7Z" fill="#FBB800"/>
<path d="M161.1 282.9L151.6 308.2L119 394.7L86.4 481.2L53.8 567.7L53.4 568.7C52.3 567.9 51.1 567 50 566.2L82.5 479.7L115.1 393.2L147.6 306.7L156 284.5C157.7 283.9 159.4 283.4 161.1 282.9Z" fill="#FBB800"/>
<path d="M172.2 279.6L160.2 311.4L127.6 397.9L95 484.4L62.6 571L61.2 574.6C60.1 573.7 59 572.8 57.8 572L58.7 569.6L91.3 483.1L123.8 396.6L156.3 310.1L167.2 281.1C168.9 280.5 170.5 280.1 172.2 279.6Z" fill="#FBB800"/>
<path d="M183.1 276.9L168.9 314.6L136.4 401.1L103.8 487.6L71.2 574.1L68.8 580.5C67.7 579.6 66.6 578.7 65.4 577.8L67.3 572.7L99.8 486.2L132.4 399.7L165 313.2L178.2 278C179.8 277.7 181.4 277.3 183.1 276.9Z" fill="#FBB800"/>
<path d="M204.2 273.2L186.2 321.1L153.7 407.6L121.1 494.1L88.5 580.6L83.7 593.5C82.6 592.5 81.5 591.5 80.4 590.5L84.7 579.2L117.3 492.7L149.9 406.2L182.5 319.7L199.8 273.8C201.1 273.6 202.7 273.4 204.2 273.2Z" fill="#FBB800"/>
<path d="M214.4 272.4L194.8 324.5L129.7 497.5L97.2 584L91 600.5C89.9 599.5 88.9 598.4 87.8 597.4L93.4 582.5L125.9 496L158.4 409.5L191 323L209.9 272.7C211.4 272.5 212.9 272.4 214.4 272.4Z" fill="#FBB800"/>
<path d="M224.3 272.2L203.4 327.6L170.8 414.1L138.3 500.6L105.7 587.1L98 607.5C97 606.4 95.9 605.4 94.8 604.3L101.8 585.7L134.3 499.2L166.9 412.7L199.4 326.2L219.7 272.2C221.4 272.2 222.9 272.2 224.3 272.2Z" fill="#FBB800"/>
<path d="M233.9 273L212.1 331L179.6 417.5L147 504L114.4 590.5L105.1 615.1C104.1 614 103 612.9 102 611.8L110.6 589.1L143.1 502.6L175.7 416.1L208.3 329.6L229.7 272.6C231.1 272.6 232.5 272.8 233.9 273Z" fill="#FBB800"/>
<path d="M243.1 274.8L220.8 334.2L188.2 420.7L155.6 507.2L123.1 593.7L112.1 622.9C111.1 621.7 110.1 620.6 109 619.4L119.2 592.3L151.8 505.8L184.4 419.3L216.9 332.8L239.1 273.9C240.5 274.1 241.8 274.4 243.1 274.8Z" fill="#FBB800"/>
<path d="M251.8 277.9L229.4 337.4L196.9 424L164.4 510.5L131.8 597L119 631C118 629.8 117 628.6 116 627.4L128 595.6L160.6 509.1L193.2 422.6L225.8 336.1L248.2 276.4C249.3 276.8 250.6 277.3 251.8 277.9Z" fill="#FBB800"/>
<path d="M259.9 282.8L238.1 340.7L205.6 427.2L173 513.7L140.4 600.2L125.6 639.4C124.6 638.2 123.7 636.9 122.7 635.7C122.7 635.7 122.7 635.7 122.7 635.6L136.6 598.7L169.1 512.2L201.7 425.7L234.3 339.2L256.5 280.3C257.6 281.1 258.8 281.9 259.9 282.8Z" fill="#FBB800"/>
<path d="M264 286.5C265.1 287.6 266.1 288.8 267 290.1L246.7 344L214.2 430.5L181.6 517L149.1 603.5L132.4 647.8C131.4 646.6 130.4 645.4 129.4 644.2L145.2 602.1L177.8 515.6L210.3 429.1L242.9 342.6L264 286.5Z" fill="#FBB800"/>
<path d="M270.3 295.9C271.2 297.9 271.9 300 272.4 302.1L255.4 347.2L222.8 433.7L190.2 520.2L157.6 606.7L139.2 655.6C138.2 654.5 137.1 653.3 136.1 652.2L153.7 605.3L186.3 518.8L218.9 432.3L251.5 345.8L270.3 295.9Z" fill="#FBB800"/>
<path d="M227.7 435.5L242.4 396.3C238.7 408.1 235.7 420.1 233.2 432.3L231.5 436.9L198.9 523.4L166.4 610L146.6 662.8C145.5 661.8 144.4 660.8 143.4 659.8L162.6 608.6L195.2 522.1L227.7 435.5Z" fill="#FBB800"/>
</g>
<mask id="mask5_1_2" style="mask-type:luminance" maskUnits="userSpaceOnUse" x="0" y="23" width="377" height="377">
<path d="M188.4 399.3C292.285 399.3 376.5 315.085 376.5 211.2C376.5 107.315 292.285 23.1 188.4 23.1C84.5152 23.1 0.299988 107.315 0.299988 211.2C0.299988 315.085 84.5152 399.3 188.4 399.3Z" fill="white"/>
</mask>
<g mask="url(#mask5_1_2)">
<path d="M111.2 352.7C137.9 340.2 156.9 363.7 189.2 351.8C207.3 345.1 210.1 334.4 233.5 309.6C264.8 276.4 293 246.4 326.8 244.5C369.8 242 420.4 285.1 421.3 323.4C422 353.1 392.5 369.8 385.5 420.9C384.5 428.1 380.5 439.7 384.4 453.9C388.5 468.7 393.2 482.8 394.4 498.2C396.4 523.7 386 553 356.4 554.3C346 554.7 336.5 555.5 308.5 542.4C243 511.7 238.7 494.2 202.9 486.7C170.4 479.9 166.1 492.7 137.9 482.8C129.7 479.9 82.9 463.5 77.2 421.6C73.5 394.1 88.3 363.4 111.2 352.7Z" fill="url(#paint2_linear_1_2)"/>
</g>
<mask id="mask6_1_2" style="mask-type:luminance" maskUnits="userSpaceOnUse" x="0" y="23" width="377" height="377">
<path d="M188.4 399.3C292.285 399.3 376.5 315.085 376.5 211.2C376.5 107.315 292.285 23.1 188.4 23.1C84.5152 23.1 0.299988 107.315 0.299988 211.2C0.299988 315.085 84.5152 399.3 188.4 399.3Z" fill="white"/>
</mask>
<g mask="url(#mask6_1_2)">
<path d="M187.8 221.6C194.2 211.7 193.4 196.6 187.2 186.2C184.3 181.3 180.9 178.6 174.7 173.9C166.7 167.7 157.3 160.5 145.7 162C139.5 162.8 135 165.7 132.8 167.2C125.7 172 124.2 177 118.8 184.1C116.3 187.4 108.3 197.9 96.2 203C84.2 208.1 80.2 202.8 66.8 208.3C62.1 210.2 53.4 213.8 48.1 222.5C38.9 237.4 46.8 255.1 47.9 257.4C54.3 271.2 66.4 277 70.8 278.8C87 285.4 102 280.2 105.8 278.7C127.6 270.3 123.9 253.1 146.7 239.3C166.9 227.1 179.6 234.5 187.8 221.6Z" fill="url(#paint3_linear_1_2)"/>
</g>
<mask id="mask7_1_2" style="mask-type:luminance" maskUnits="userSpaceOnUse" x="0" y="23" width="377" height="377">
<path d="M188.4 399.3C292.285 399.3 376.5 315.085 376.5 211.2C376.5 107.315 292.285 23.1 188.4 23.1C84.5152 23.1 0.299988 107.315 0.299988 211.2C0.299988 315.085 84.5152 399.3 188.4 399.3Z" fill="white"/>
</mask>
<g mask="url(#mask7_1_2)">
<path d="M51.5 159.8C51.8 159.4 52 159.1 52.3 158.9C56.3 154.8 62.9 156.6 69.2 156.4C81.7 156 85 147.9 91.5 150.9C94.5 152.3 97.5 155.7 97.1 159C96.9 161 95.6 162.8 94.3 164.4C89.5 170 82.8 173.6 75.9 176.3C70.5 178.4 64.5 179.9 58.8 178.5C50.4 176.4 46.2 166.8 51.5 159.8Z" fill="url(#paint4_linear_1_2)"/>
</g>
<defs>
<linearGradient id="paint0_linear_1_2" x1="403.33" y1="78.4702" x2="113.125" y2="35.7299" gradientUnits="userSpaceOnUse">
<stop stop-color="#291F71"/>
<stop offset="1" stop-color="#93122E"/>
</linearGradient>
<linearGradient id="paint1_linear_1_2" x1="-230.746" y1="258.433" x2="333.728" y2="377.326" gradientUnits="userSpaceOnUse">
<stop stop-color="#FBB800"/>
<stop offset="1" stop-color="#E84E34"/>
</linearGradient>
<linearGradient id="paint2_linear_1_2" x1="421.251" y1="399.346" x2="76.6716" y2="399.346" gradientUnits="userSpaceOnUse">
<stop stop-color="#291F71"/>
<stop offset="1" stop-color="#93122E"/>
</linearGradient>
<linearGradient id="paint3_linear_1_2" x1="193.465" y1="210.029" x2="42.4813" y2="234.156" gradientUnits="userSpaceOnUse">
<stop stop-color="#291F71"/>
<stop offset="1" stop-color="#93122E"/>
</linearGradient>
<linearGradient id="paint4_linear_1_2" x1="96.6461" y1="155.785" x2="50.3904" y2="171.917" gradientUnits="userSpaceOnUse">
<stop stop-color="#291F71"/>
<stop offset="1" stop-color="#93122E"/>
</linearGradient>
</defs>
</svg>
