<svg width="851" height="790" viewBox="0 0 851 790" fill="none" xmlns="http://www.w3.org/2000/svg">
<g clip-path="url(#clip0_96_8)">
<rect x="-100.998" y="-132.915" width="1054.87" height="1055.83" fill="white"/>
<mask id="mask0_96_8" style="mask-type:luminance" maskUnits="userSpaceOnUse" x="152" y="132" width="528" height="527">
<path d="M415.961 658.749C561.286 658.749 679.095 540.832 679.095 395.374C679.095 249.917 561.286 132 415.961 132C270.636 132 152.827 249.917 152.827 395.374C152.827 540.832 270.636 658.749 415.961 658.749Z" fill="white"/>
</mask>
<g mask="url(#mask0_96_8)">
<path d="M64.976 445.641L80.364 383.053L111.14 257.316L141.916 131.58L172.692 5.84351L176.049 -8.0183C177.728 -6.89816 179.406 -5.77801 181.085 -4.65786L178.147 7.10368L147.372 132.84L116.596 258.577L85.8197 384.313L71.2711 443.541C69.3126 444.381 67.0744 445.081 64.976 445.641Z" fill="#FBB800"/>
<path d="M351.472 200.609L355.529 184.087L373.155 112.117C374.554 122.759 373.435 133.68 371.196 144.182V144.322L368.678 154.263C364.342 170.085 358.466 185.487 351.472 200.609Z" fill="#FBB800"/>
<path d="M327.69 243.035L342.938 181.006L365.461 88.8744C366.86 91.2547 368.119 93.915 369.238 96.8554C369.238 96.9954 369.378 96.9954 369.378 97.1354L348.534 182.407L337.623 227.212C334.405 232.533 331.188 237.854 327.69 243.035Z" fill="#FBB800"/>
<path d="M307.406 271.598L330.348 177.926L355.249 76.2727C356.928 77.6729 358.466 79.3531 360.005 81.0333L335.944 179.186L316.219 259.837C313.282 263.897 310.344 267.818 307.406 271.598Z" fill="#FBB800"/>
<path d="M288.521 294.421L317.898 174.846L343.918 68.5717C345.736 69.5518 347.415 70.532 349.094 71.5121L323.354 176.246L296.635 284.9C293.977 288.12 291.319 291.341 288.521 294.421Z" fill="#FBB800"/>
<path d="M270.335 313.884L274.392 297.502L305.168 171.765L331.747 63.5311C333.566 64.2311 335.384 64.7912 337.203 65.4913L310.764 173.165L279.988 298.902L278.309 305.623C275.651 308.423 273.133 311.083 270.335 313.884Z" fill="#FBB800"/>
<path d="M252.849 330.966L261.802 294.421L292.578 168.685L319.297 59.6105C321.116 60.1706 322.934 60.7307 324.753 61.2908L298.034 170.085L267.258 295.821L260.403 323.685C258.025 326.065 255.507 328.586 252.849 330.966Z" fill="#FBB800"/>
<path d="M235.782 346.228L249.212 291.341L279.988 165.604L306.847 55.9701C308.665 56.5301 310.484 57.0902 312.302 57.6503L285.443 167.005L254.668 292.741L243.336 339.647C240.818 341.887 238.3 344.128 235.782 346.228Z" fill="#FBB800"/>
<path d="M219.135 360.09L236.762 288.26L267.537 162.524L294.676 51.7695C296.495 52.4696 298.313 53.0297 300.132 53.5898L273.133 163.784L242.357 289.521L226.55 354.069C224.032 356.169 221.653 358.13 219.135 360.09Z" fill="#FBB800"/>
<path d="M202.768 372.691L224.171 285.18L254.947 159.444L282.366 47.4289C284.184 48.129 286.003 48.8291 287.822 49.3892L260.543 160.844L229.767 286.58L210.042 367.371C207.524 369.051 205.146 370.871 202.768 372.691Z" fill="#FBB800"/>
<path d="M186.541 384.313L211.581 282.1L242.357 156.363L270.195 42.6683C272.014 43.3684 273.833 44.0685 275.511 44.7686L247.813 157.763L217.037 283.5L193.535 379.272C191.297 380.952 188.919 382.633 186.541 384.313Z" fill="#FBB800"/>
<path d="M170.593 394.954L198.991 279.019L229.767 153.283L258.165 37.4877C259.983 38.3278 261.662 39.0279 263.481 39.728L235.363 154.543L204.587 280.279L177.588 390.334C175.35 391.874 172.971 393.414 170.593 394.954Z" fill="#FBB800"/>
<path d="M154.926 404.756L155.625 401.675L186.401 275.939L217.177 150.202L246.134 32.167C247.953 33.0071 249.632 33.8472 251.45 34.6873L222.912 151.603L192.137 277.339L161.92 400.555C159.542 401.955 157.164 403.355 154.926 404.756Z" fill="#FBB800"/>
<path d="M139.398 413.717L143.175 398.455L173.951 272.718L204.727 146.982L234.383 26.1462C236.062 26.9863 237.881 27.8264 239.699 28.8065L210.322 148.382L179.546 274.119L148.77 399.855L146.392 409.796C144.014 411.196 141.636 412.457 139.398 413.717Z" fill="#FBB800"/>
<path d="M124.15 421.838L130.585 395.374L161.361 269.638L192.136 143.902L222.493 20.1254C224.171 21.1055 225.99 21.9456 227.669 22.9257L197.732 145.302L166.956 271.038L136.18 396.775L130.864 418.337C128.766 419.458 126.528 420.718 124.15 421.838Z" fill="#FBB800"/>
<path d="M109.042 429.119L117.995 392.294L148.77 266.558L179.546 140.821L210.322 15.0847L210.742 13.5445C212.421 14.5246 214.239 15.5048 215.918 16.4849L185.142 142.081L154.366 267.818L123.59 393.554L115.616 425.898C113.518 427.019 111.28 427.999 109.042 429.119Z" fill="#FBB800"/>
<path d="M94.0732 435.42L105.404 389.214L136.18 263.477L166.956 137.741L197.732 12.0043L198.991 6.82364C200.67 7.80377 202.348 8.92392 204.167 9.90405L203.328 13.4045L172.552 139.141L141.776 264.877L111 390.614L100.648 432.619C98.5497 433.599 96.3115 434.44 94.0732 435.42Z" fill="#FBB800"/>
<path d="M79.3847 441.02L92.8142 386.273L123.59 260.537L154.366 134.8L185.142 9.06394L187.38 -0.317291C189.059 0.802855 190.738 1.92301 192.556 2.90313L190.738 10.3241L160.102 136.061L129.326 261.797L98.5497 387.533L85.9596 438.64C83.7213 439.34 81.623 440.18 79.3847 441.02Z" fill="#FBB800"/>
<path d="M50.7072 449.561L67.7738 379.972L98.5497 254.236L129.326 128.5L160.102 2.76311L164.718 -15.9993C166.397 -14.7392 168.075 -13.619 169.754 -12.3589L165.697 4.16329L134.921 129.9L104.005 255.636L73.2295 381.373L56.8623 448.021C54.9039 448.581 52.8055 449.141 50.7072 449.561Z" fill="#FBB800"/>
<path d="M36.7181 452.502L55.3235 376.892L116.875 125.419L147.651 -0.317297L153.527 -24.2604C155.205 -23.0003 156.884 -21.7401 158.563 -20.4799L153.247 1.08289L122.471 126.819L91.6951 252.556L60.9192 378.292L43.0132 451.382C40.7749 451.802 38.6766 452.222 36.7181 452.502Z" fill="#FBB800"/>
</g>
<mask id="mask1_96_8" style="mask-type:luminance" maskUnits="userSpaceOnUse" x="152" y="132" width="528" height="527">
<path d="M415.961 658.749C561.286 658.749 679.095 540.832 679.095 395.374C679.095 249.917 561.286 132 415.961 132C270.636 132 152.827 249.917 152.827 395.374C152.827 540.832 270.636 658.749 415.961 658.749Z" fill="white"/>
</mask>
<g mask="url(#mask1_96_8)">
<path d="M461.985 360.51L509.968 324.245L606.212 251.576L702.457 178.906L798.702 106.237L809.334 98.2556C809.613 100.216 809.893 102.176 810.173 104.136L801.22 110.857L704.975 183.527L608.73 256.196L512.486 328.866L467.161 363.17C465.343 362.33 463.664 361.35 461.985 360.51Z" fill="#FBB800"/>
<path d="M664.267 398.175L676.857 388.653L773.102 315.984L856.057 253.396C856.756 255.076 857.316 256.756 858.015 258.436L775.62 320.605L679.375 393.274L674.199 397.195C670.842 397.615 667.624 397.895 664.267 398.175Z" fill="#FBB800"/>
<path d="M643.423 399.155L671.401 378.012L767.646 305.343L851.161 242.334C851.86 244.015 852.7 245.555 853.399 247.095L770.024 309.963L673.78 382.633L652.376 398.735C649.579 399.015 646.501 399.155 643.423 399.155Z" fill="#FBB800"/>
<path d="M623.979 399.295L666.086 367.511L762.33 294.841L846.265 231.413C846.964 233.093 847.663 234.633 848.503 236.174L764.708 299.462L668.464 372.131L632.512 399.295C629.574 399.435 626.776 399.295 623.979 399.295Z" fill="#FBB800"/>
<path d="M605.653 398.595L660.63 357.009L756.875 284.34L841.648 220.352C842.348 222.032 843.047 223.712 843.747 225.252L759.393 288.96L663.008 361.63L613.627 398.875C610.969 398.875 608.311 398.735 605.653 398.595Z" fill="#FBB800"/>
<path d="M588.167 397.055L655.174 346.368L751.419 273.698L837.172 208.87C837.731 210.55 838.431 212.23 839.13 213.911L753.797 278.319L657.552 350.989L595.721 397.615C593.203 397.615 590.685 397.335 588.167 397.055Z" fill="#FBB800"/>
<path d="M571.38 394.954L649.718 335.867L745.963 263.197L833.115 197.389C833.674 199.069 834.234 200.749 834.934 202.569L748.341 267.958L652.097 340.627L578.654 396.075C576.276 395.654 573.898 395.374 571.38 394.954Z" fill="#FBB800"/>
<path d="M555.432 392.434L644.263 325.365L740.507 252.696L829.198 185.767C829.757 187.447 830.317 189.267 830.877 190.948L742.885 257.316L646.641 329.986L562.427 393.694C560.188 393.274 557.81 392.854 555.432 392.434Z" fill="#FBB800"/>
<path d="M540.184 389.354L542.562 387.533L638.807 314.864L735.052 242.194L825.561 173.865C826.12 175.686 826.54 177.366 827.1 179.186L737.57 246.815L641.325 319.484L546.899 390.754C544.661 390.334 542.422 389.774 540.184 389.354Z" fill="#FBB800"/>
<path d="M525.496 385.713L537.107 376.892L633.351 304.222L729.596 231.553L822.064 161.684C822.483 163.504 823.043 165.324 823.462 167.005L731.974 236.174L635.729 308.843L539.485 381.513L531.791 387.253C529.832 386.833 527.594 386.273 525.496 385.713Z" fill="#FBB800"/>
<path d="M511.507 381.653L531.791 366.391L628.035 293.721L724.28 221.052L819.126 149.502C819.545 151.322 819.965 153.143 820.525 154.963L726.798 225.672L630.414 298.482L534.169 371.151L517.662 383.613C515.703 383.053 513.605 382.353 511.507 381.653Z" fill="#FBB800"/>
<path d="M498.217 377.172L526.335 355.889L622.58 283.22L718.824 210.55L815.069 137.881L816.188 137.041C816.608 138.861 817.027 140.821 817.447 142.641L721.202 215.311L624.958 287.98L528.713 360.51L503.952 379.132C502.134 378.572 500.175 377.872 498.217 377.172Z" fill="#FBB800"/>
<path d="M485.487 371.991L520.879 345.248L617.124 272.578L713.369 200.049L809.613 127.379L813.67 124.299C813.95 126.259 814.37 128.079 814.789 129.9L812.131 132L715.747 204.669L619.502 277.339L523.257 350.008L491.083 374.372C489.264 373.672 487.306 372.831 485.487 371.991Z" fill="#FBB800"/>
<path d="M473.456 366.531L515.423 334.887L611.668 262.217L707.913 189.548L804.158 116.878L811.292 111.417C811.572 113.378 811.991 115.198 812.271 117.158L806.536 121.499L710.291 194.168L614.046 266.838L517.802 339.507L478.632 369.051C476.954 368.211 475.135 367.371 473.456 366.531Z" fill="#FBB800"/>
<path d="M451.214 353.929L504.512 313.744L600.757 241.074L697.001 168.405L793.246 95.7352L807.515 84.9538C807.795 86.9141 807.935 88.8744 808.214 90.9746L795.624 100.496L699.38 173.165L603.135 245.835L506.89 318.504L455.97 356.869C454.291 355.889 452.753 354.909 451.214 353.929Z" fill="#FBB800"/>
<path d="M441.142 346.928L499.056 303.242L691.686 157.763L787.93 85.0939L806.256 71.232C806.396 73.1923 806.676 75.2926 806.815 77.2528L790.308 89.8545L694.064 162.524L597.819 235.193L501.574 307.863L445.618 350.148C444.079 349.028 442.68 348.048 441.142 346.928Z" fill="#FBB800"/>
<path d="M432.049 339.227L493.74 292.601L589.985 219.931L686.23 147.262L782.474 74.5925L805.137 57.5103C805.277 59.6105 805.417 61.5708 805.556 63.6711L784.853 79.3531L688.608 152.023L592.363 224.692L496.119 297.362L435.966 342.728C434.567 341.607 433.308 340.347 432.049 339.227Z" fill="#FBB800"/>
<path d="M423.795 330.826L488.285 282.1L584.529 209.43L680.774 136.761L777.019 64.0911L804.437 43.3684C804.577 45.4687 804.577 47.569 804.717 49.6692L779.397 68.7117L683.152 141.381L586.908 214.051L490.663 286.72L427.292 334.606C426.033 333.346 424.914 332.086 423.795 330.826Z" fill="#FBB800"/>
<path d="M416.661 321.445L482.689 271.598L579.074 198.929L675.318 126.259L771.563 53.4497L804.018 28.9465C804.018 31.0468 804.018 33.1471 804.157 35.3874L773.941 58.2104L677.696 130.88L581.452 203.549L485.207 276.219L419.598 325.645C418.619 324.245 417.64 322.845 416.661 321.445Z" fill="#FBB800"/>
<path d="M411.205 310.943L477.373 260.957L573.618 188.287L669.863 115.618L766.107 42.9484L804.018 14.3846C804.018 16.6249 804.018 18.7252 804.018 20.9655L768.625 47.709L672.381 120.378L576.136 193.048L479.751 265.717L413.443 315.844C412.604 314.164 411.765 312.624 411.205 310.943Z" fill="#FBB800"/>
<path d="M407.568 299.042L471.918 250.455L568.162 177.786L664.407 105.116L760.791 32.447L804.437 -0.457314C804.437 1.78298 804.297 3.88325 804.297 5.98353C804.297 5.98353 804.297 5.98352 804.297 6.12354L763.17 37.0676L666.925 109.737L570.68 182.407L474.296 255.076L408.827 304.503C408.267 302.822 407.848 301.002 407.568 299.042Z" fill="#FBB800"/>
<path d="M406.589 291.621C406.449 289.521 406.449 287.28 406.589 285.04L466.462 239.814L562.706 167.145L658.951 94.4751L755.336 21.9456L804.577 -15.2992C804.577 -13.059 804.577 -10.9587 804.577 -8.71839L757.714 26.5662L661.469 99.2357L565.225 171.905L468.98 244.575L406.589 291.621Z" fill="#FBB800"/>
<path d="M407.988 275.939C408.687 272.858 409.666 270.058 410.785 267.258L461.006 229.313L557.251 156.643L653.495 83.9737L749.74 11.3042L804.297 -29.7211C804.437 -27.6209 804.437 -25.5206 804.577 -23.4203L752.398 16.0648L656.013 88.7343L559.769 161.404L463.524 234.073L407.988 275.939Z" fill="#FBB800"/>
<path d="M554.313 150.762L510.667 183.667C523.117 173.165 535.148 161.824 546.619 149.922L551.795 146.002L648.04 73.3323L744.284 0.662837L803.038 -43.723C803.318 -41.7627 803.458 -39.8024 803.598 -37.7022L746.663 5.28343L650.418 77.9529L554.313 150.762Z" fill="#FBB800"/>
</g>
<mask id="mask2_96_8" style="mask-type:luminance" maskUnits="userSpaceOnUse" x="152" y="132" width="528" height="527">
<path d="M415.961 658.749C561.286 658.749 679.095 540.832 679.095 395.374C679.095 249.917 561.286 132 415.961 132C270.636 132 152.827 249.917 152.827 395.374C152.827 540.832 270.636 658.749 415.961 658.749Z" fill="white"/>
</mask>
<g mask="url(#mask2_96_8)">
<path d="M565.644 36.2275C586.348 54.7099 601.176 81.4534 613.487 105.116C627.336 131.72 645.102 154.963 664.267 177.926C670.003 184.787 729.596 294.281 688.468 339.927C661.609 369.751 597.259 365.691 558.79 344.128C544.101 335.867 543.821 330.966 485.207 287.42C459.607 268.378 453.592 264.737 444.079 262.217C408.827 252.976 393.579 277.479 364.062 271.178C332.307 264.317 303.21 225.672 304.888 189.267C306.567 153.703 337.063 130.74 357.627 115.338C397.776 85.0939 410.785 101.476 443.8 72.9123C474.016 46.7288 486.466 11.7243 513.045 13.2645C534.169 14.3846 551.235 23.3458 565.644 36.2275Z" fill="url(#paint0_linear_96_8)"/>
</g>
<mask id="mask3_96_8" style="mask-type:luminance" maskUnits="userSpaceOnUse" x="152" y="132" width="528" height="527">
<path d="M415.961 658.749C561.286 658.749 679.095 540.832 679.095 395.374C679.095 249.917 561.286 132 415.961 132C270.636 132 152.827 249.917 152.827 395.374C152.827 540.832 270.636 658.749 415.961 658.749Z" fill="white"/>
</mask>
<g mask="url(#mask3_96_8)">
<path d="M445.898 754.801C454.151 751.721 461.985 747.8 469.4 743.04C488.565 730.578 568.722 685.632 595.581 593.22C596.98 588.6 599.917 577.818 602.016 563.676C605.373 540.153 615.165 469.584 575.576 439.34C559.489 427.019 539.485 424.778 522.698 425.758C507.03 426.738 492.062 431.919 478.772 440.04C464.503 448.721 445.198 457.262 422.256 458.523C364.622 461.743 338.882 411.056 282.786 414.417C232.005 417.497 181.505 472.104 175.35 522.791C171.153 558.076 188.08 594.62 209.063 640.266C215.218 653.568 218.296 660.289 223.192 668.13C264.74 734.499 369.098 783.365 445.898 754.801Z" fill="url(#paint1_linear_96_8)"/>
</g>
<mask id="mask4_96_8" style="mask-type:luminance" maskUnits="userSpaceOnUse" x="152" y="132" width="528" height="527">
<path d="M415.961 658.749C561.286 658.749 679.095 540.832 679.095 395.374C679.095 249.917 561.286 132 415.961 132C270.636 132 152.827 249.917 152.827 395.374C152.827 540.832 270.636 658.749 415.961 658.749Z" fill="white"/>
</mask>
<g mask="url(#mask4_96_8)">
<path d="M423.376 484.426L400.713 544.774L355.249 665.89L309.645 787.146L264.18 908.261L259.144 921.563C257.605 920.163 256.066 918.903 254.528 917.643L258.864 906.301L304.469 785.185L349.933 664.07L395.537 542.954L416.941 485.826C419.039 485.266 421.277 484.846 423.376 484.426Z" fill="#FBB800"/>
<path d="M162.06 628.365L128.067 718.677L91.2754 816.689C89.7366 815.009 88.4776 813.329 87.2186 811.369L122.751 716.716L151.988 639.006C155.205 635.366 158.563 631.865 162.06 628.365Z" fill="#FBB800"/>
<path d="M183.603 608.062L140.237 723.297L101.767 825.791C100.089 824.67 98.5498 823.55 97.011 822.15L134.921 721.197L174.231 616.463C177.308 613.663 180.386 610.862 183.603 608.062Z" fill="#FBB800"/>
<path d="M203.747 590.84L197.732 606.662L152.128 727.778L112.958 832.091C111.14 831.251 109.461 830.411 107.783 829.431L146.812 725.678L192.416 604.562L194.794 597.981C197.872 595.741 200.81 593.22 203.747 590.84Z" fill="#FBB800"/>
<path d="M223.192 575.998L209.903 611.143L164.438 732.258L124.849 837.552C123.031 836.852 121.352 836.012 119.533 835.312L158.982 730.438L204.587 609.322L214.659 582.439C217.457 580.199 220.394 578.098 223.192 575.998Z" fill="#FBB800"/>
<path d="M241.938 562.836L222.073 615.763L176.469 736.879L136.74 842.593C134.921 841.753 133.243 841.053 131.424 840.353L171.013 734.919L216.757 613.803L233.824 568.577C236.482 566.617 239.14 564.797 241.938 562.836Z" fill="#FBB800"/>
<path d="M260.123 551.075L234.104 620.384L188.499 741.5L148.351 848.194C146.672 847.353 144.854 846.513 143.175 845.673L183.323 739.539L228.788 618.424L252.15 556.255C254.807 554.435 257.465 552.755 260.123 551.075Z" fill="#FBB800"/>
<path d="M278.029 540.573L246.274 625.004L200.67 746.12L160.102 854.074C158.423 853.234 156.744 852.254 154.926 851.414L195.214 744.02L240.679 622.904L269.916 545.054C272.713 543.514 275.371 541.974 278.029 540.573Z" fill="#FBB800"/>
<path d="M295.376 530.912L258.305 629.485L212.7 750.601L171.433 860.235C169.754 859.255 168.075 858.415 166.397 857.435L207.245 748.641L252.709 627.525L287.402 535.113C290.34 533.712 292.858 532.312 295.376 530.912Z" fill="#FBB800"/>
<path d="M312.442 522.231L270.475 633.966L224.871 755.081L182.904 866.676C181.225 865.696 179.546 864.716 177.868 863.736L219.415 753.121L264.88 632.005L304.748 526.011C307.406 524.751 309.924 523.491 312.442 522.231Z" fill="#FBB800"/>
<path d="M329.229 514.39L328.11 517.47L282.506 638.586L236.901 759.702L194.095 873.537C192.416 872.557 190.738 871.437 189.059 870.456L231.726 757.742L277.19 636.626L321.815 517.89C324.333 516.63 326.851 515.51 329.229 514.39Z" fill="#FBB800"/>
<path d="M345.736 507.389L340.281 522.091L294.676 643.207L249.072 764.323L205.286 880.678C203.608 879.558 202.069 878.577 200.39 877.457L243.756 762.222L289.36 641.106L334.825 519.991L338.462 510.329C340.84 509.349 343.358 508.369 345.736 507.389Z" fill="#FBB800"/>
<path d="M361.824 501.088L352.311 526.571L306.707 647.687L261.242 768.803L216.338 888.099C214.659 886.979 213.12 885.858 211.441 884.738L255.787 766.703L301.391 645.587L346.855 524.471L354.689 503.609C357.067 502.908 359.446 501.928 361.824 501.088Z" fill="#FBB800"/>
<path d="M377.771 495.768L364.482 531.192L318.877 652.308L273.273 773.424L227.669 894.54L227.109 895.94C225.57 894.82 223.892 893.559 222.353 892.439L267.817 771.324L313.422 650.208L358.886 529.092L370.637 498.008C373.015 497.168 375.393 496.468 377.771 495.768Z" fill="#FBB800"/>
<path d="M393.299 491.147L376.512 535.673L330.908 656.789L285.304 777.904L239.979 899.16L238.021 904.201C236.482 902.941 234.943 901.681 233.264 900.56L234.523 897.2L280.128 776.084L325.592 654.968L371.056 533.852L386.305 493.247C388.683 492.407 390.921 491.847 393.299 491.147Z" fill="#FBB800"/>
<path d="M408.547 487.366L388.683 540.153L343.218 661.269L297.614 782.385L252.01 903.501L248.652 912.462C247.113 911.202 245.575 909.942 243.896 908.681L246.554 901.541L292.018 780.425L337.623 659.309L383.227 538.193L401.693 488.907C403.931 488.487 406.169 487.927 408.547 487.366Z" fill="#FBB800"/>
<path d="M438.064 482.186L412.884 549.255L367.419 670.37L321.815 791.486L276.211 912.602L269.496 930.664C267.957 929.264 266.418 927.864 264.88 926.464L270.895 910.642L316.499 789.526L362.103 668.41L407.708 547.294L431.909 483.026C433.727 482.746 435.966 482.466 438.064 482.186Z" fill="#FBB800"/>
<path d="M452.333 481.066L424.914 554.015L333.846 796.247L288.381 917.363L279.708 940.466C278.169 939.065 276.77 937.525 275.231 936.125L283.065 915.262L328.53 794.147L373.994 673.031L419.598 551.915L446.038 481.486C448.136 481.206 450.234 481.066 452.333 481.066Z" fill="#FBB800"/>
<path d="M466.182 480.786L436.945 558.356L391.341 679.472L345.876 800.587L300.272 921.703L289.5 950.267C288.101 948.727 286.563 947.326 285.024 945.786L294.816 919.743L340.281 798.627L385.885 677.511L431.349 556.395L459.747 480.786C462.125 480.786 464.224 480.786 466.182 480.786Z" fill="#FBB800"/>
<path d="M479.612 481.906L449.115 563.116L403.651 684.232L358.047 805.348L312.442 926.464L299.433 960.908C298.034 959.368 296.495 957.828 295.096 956.288L307.127 924.503L352.591 803.388L398.195 682.272L443.8 561.156L473.736 481.346C475.695 481.346 477.653 481.626 479.612 481.906Z" fill="#FBB800"/>
<path d="M492.481 484.426L461.286 567.597L415.682 688.713L370.077 809.829L324.613 930.944L309.225 971.83C307.826 970.149 306.427 968.609 304.888 966.929L319.157 928.984L364.761 807.868L410.366 686.752L455.83 565.637L486.886 483.166C488.844 483.446 490.663 483.866 492.481 484.426Z" fill="#FBB800"/>
<path d="M504.652 488.767L473.316 572.077L427.852 693.333L382.388 814.449L336.783 935.565L318.877 983.171C317.478 981.491 316.08 979.811 314.681 978.131L331.467 933.605L377.072 812.489L422.676 691.373L468.28 570.257L499.616 486.666C501.155 487.226 502.973 487.926 504.652 488.767Z" fill="#FBB800"/>
<path d="M515.983 495.627L485.487 576.698L440.023 697.814L394.418 818.93L348.814 940.046L328.11 994.933C326.711 993.253 325.452 991.432 324.053 989.752C324.053 989.752 324.053 989.752 324.053 989.612L343.498 937.945L388.962 816.829L434.567 695.714L480.171 574.598L511.227 492.127C512.766 493.247 514.444 494.367 515.983 495.627Z" fill="#FBB800"/>
<path d="M521.719 500.808C523.257 502.348 524.656 504.029 525.915 505.849L497.518 581.319L452.053 702.435L406.449 823.55L360.984 944.666L337.623 1006.69C336.224 1005.01 334.825 1003.33 333.426 1001.65L355.529 942.706L401.133 821.59L446.597 700.474L492.202 579.358L521.719 500.808Z" fill="#FBB800"/>
<path d="M530.532 513.97C531.791 516.77 532.77 519.711 533.469 522.651L509.688 585.799L464.084 706.915L418.479 828.031L372.875 949.147L347.135 1017.62C345.736 1016.08 344.198 1014.4 342.799 1012.86L367.419 947.186L413.024 826.071L458.628 704.955L504.232 583.839L530.532 513.97Z" fill="#FBB800"/>
<path d="M470.938 709.435L491.502 654.548C486.326 671.07 482.13 687.873 478.632 704.955L476.254 711.396L430.65 832.512L385.185 953.767L357.487 1027.7C355.948 1026.3 354.41 1024.9 353.011 1023.5L379.87 951.807L425.474 830.691L470.938 709.435Z" fill="#FBB800"/>
</g>
<mask id="mask5_96_8" style="mask-type:luminance" maskUnits="userSpaceOnUse" x="152" y="132" width="528" height="527">
<path d="M415.961 658.749C561.286 658.749 679.095 540.832 679.095 395.374C679.095 249.917 561.286 132 415.961 132C270.636 132 152.827 249.917 152.827 395.374C152.827 540.832 270.636 658.749 415.961 658.749Z" fill="white"/>
</mask>
<g mask="url(#mask5_96_8)">
<path d="M307.966 593.5C345.317 575.998 371.896 608.902 417.08 592.24C442.401 582.859 446.318 567.877 479.052 533.152C522.838 486.666 562.287 444.661 609.57 442.001C669.723 438.5 740.507 498.848 741.766 552.475C742.746 594.06 701.478 617.443 691.686 688.993C690.287 699.074 684.691 715.316 690.147 735.199C695.882 755.921 702.457 775.664 704.136 797.227C706.934 832.932 692.385 873.957 650.977 875.777C636.429 876.337 623.139 877.457 583.97 859.115C492.342 816.129 486.326 791.626 436.245 781.125C390.781 771.604 384.766 789.526 345.317 775.664C333.846 771.604 268.377 748.641 260.403 689.973C255.227 651.468 275.931 608.482 307.966 593.5Z" fill="url(#paint2_linear_96_8)"/>
</g>
<mask id="mask6_96_8" style="mask-type:luminance" maskUnits="userSpaceOnUse" x="152" y="132" width="528" height="527">
<path d="M415.961 658.749C561.286 658.749 679.095 540.832 679.095 395.374C679.095 249.917 561.286 132 415.961 132C270.636 132 152.827 249.917 152.827 395.374C152.827 540.832 270.636 658.749 415.961 658.749Z" fill="white"/>
</mask>
<g mask="url(#mask6_96_8)">
<path d="M415.122 409.936C424.075 396.074 422.956 374.932 414.283 360.37C410.226 353.509 405.47 349.728 396.796 343.148C385.605 334.466 372.455 324.385 356.228 326.485C347.555 327.606 341.26 331.666 338.182 333.766C328.25 340.487 326.152 347.488 318.598 357.429C315.1 362.05 303.909 376.752 286.982 383.893C270.195 391.034 264.6 383.613 245.854 391.314C239.28 393.974 227.109 399.015 219.695 411.196C206.825 432.059 217.876 456.842 219.415 460.063C228.368 479.385 245.295 487.506 251.45 490.027C274.112 499.268 295.096 491.987 300.412 489.887C330.908 478.125 325.732 454.042 357.627 434.72C385.885 417.637 403.651 427.999 415.122 409.936Z" fill="url(#paint3_linear_96_8)"/>
</g>
<mask id="mask7_96_8" style="mask-type:luminance" maskUnits="userSpaceOnUse" x="152" y="132" width="528" height="527">
<path d="M415.961 658.749C561.286 658.749 679.095 540.832 679.095 395.374C679.095 249.917 561.286 132 415.961 132C270.636 132 152.827 249.917 152.827 395.374C152.827 540.832 270.636 658.749 415.961 658.749Z" fill="white"/>
</mask>
<g mask="url(#mask7_96_8)">
<path d="M224.451 323.405C224.871 322.845 225.151 322.425 225.57 322.145C231.166 316.404 240.399 318.924 249.212 318.644C266.698 318.084 271.315 306.743 280.407 310.943C284.604 312.904 288.801 317.664 288.241 322.285C287.962 325.085 286.143 327.606 284.324 329.846C277.61 337.687 268.237 342.728 258.584 346.508C251.03 349.448 242.637 351.549 234.663 349.588C222.912 346.648 217.037 333.206 224.451 323.405Z" fill="url(#paint4_linear_96_8)"/>
</g>
</g>
<defs>
<linearGradient id="paint0_linear_96_8" x1="716.628" y1="209.528" x2="310.642" y2="149.791" gradientUnits="userSpaceOnUse">
<stop stop-color="#291F71"/>
<stop offset="1" stop-color="#93122E"/>
</linearGradient>
<linearGradient id="paint1_linear_96_8" x1="-170.384" y1="461.509" x2="619.323" y2="627.69" gradientUnits="userSpaceOnUse">
<stop stop-color="#FBB800"/>
<stop offset="1" stop-color="#E84E34"/>
</linearGradient>
<linearGradient id="paint2_linear_96_8" x1="741.698" y1="658.813" x2="259.664" y2="658.813" gradientUnits="userSpaceOnUse">
<stop stop-color="#291F71"/>
<stop offset="1" stop-color="#93122E"/>
</linearGradient>
<linearGradient id="paint3_linear_96_8" x1="423.047" y1="393.735" x2="211.825" y2="427.457" gradientUnits="userSpaceOnUse">
<stop stop-color="#291F71"/>
<stop offset="1" stop-color="#93122E"/>
</linearGradient>
<linearGradient id="paint4_linear_96_8" x1="287.606" y1="317.783" x2="222.886" y2="340.334" gradientUnits="userSpaceOnUse">
<stop stop-color="#291F71"/>
<stop offset="1" stop-color="#93122E"/>
</linearGradient>
<clipPath id="clip0_96_8">
<rect width="851" height="790" rx="395" fill="white"/>
</clipPath>
</defs>
</svg>
